<svg width="24" height="24" viewBox="0 0 24 24" fill="none" xmlns="http://www.w3.org/2000/svg">
  <path d="M19 3H14.82C14.4 1.84 13.3 1 12 1C10.7 1 9.6 1.84 9.18 3H5C3.9 3 3 3.9 3 5V19C3 20.1 3.9 21 5 21H19C20.1 21 21 20.1 21 19V5C21 3.9 20.1 3 19 3Z" fill="white"/>
  <path d="M12 3C12.55 3 13 2.55 13 2C13 1.45 12.55 1 12 1C11.45 1 11 1.45 11 2C11 2.55 11.45 3 12 3Z" fill="white"/>
  <path d="M7 7H17V9H7V7Z" fill="white"/>
  <path d="M7 11H17V13H7V11Z" fill="white"/>
  <path d="M7 15H14V17H7V15Z" fill="white"/>
  <path d="M16 15H17V17H16V15Z" fill="white"/>
</svg>
