<?xml version="1.0" encoding="iso-8859-1"?>
<!-- Uploaded to: SVG Repo, www.svgrepo.com, Generator: SVG Repo Mixer Tools -->
<svg fill="#000000" height="800px" width="800px" version="1.1" id="Layer_1" xmlns="http://www.w3.org/2000/svg" xmlns:xlink="http://www.w3.org/1999/xlink" 
	 viewBox="0 0 511.999 511.999" xml:space="preserve">
<g>
	<g>
		<path d="M373.096,65.362c-6.157,0-12.229,0.759-18.137,2.266c-7.136-18.216-19.388-34.436-35.089-46.275
			C301.343,7.384,279.254,0,255.989,0s-45.353,7.384-63.88,21.354c-15.701,11.838-27.953,28.059-35.089,46.275
			c-5.908-1.508-11.979-2.267-18.137-2.267c-40.546,0-73.532,32.986-73.532,73.532c0,40.546,32.987,73.532,73.532,73.532
			c4.513,0,8.17-3.657,8.17-8.17c0-4.513-3.657-8.17-8.17-8.17c-31.535,0-57.192-25.657-57.192-57.192s25.657-57.191,57.192-57.191
			c6.987,0,13.831,1.257,20.342,3.738c2.119,0.805,4.476,0.697,6.512-0.302c2.034-1,3.562-2.799,4.217-4.97
			c11.36-37.581,46.739-63.828,86.036-63.828c39.296,0,74.676,26.247,86.037,63.828c0.656,2.17,2.183,3.97,4.217,4.97
			c2.037,1,4.392,1.109,6.512,0.302c6.51-2.48,13.353-3.738,20.341-3.738c31.535,0,57.192,25.657,57.192,57.191
			s-25.657,57.192-57.192,57.192H171.564c-4.513,0-8.17,3.657-8.17,8.17c0,4.513,3.657,8.17,8.17,8.17h201.532
			c40.546,0,73.532-32.986,73.532-73.532C446.627,98.348,413.642,65.362,373.096,65.362z"/>
	</g>
</g>
<g>
	<g>
		<path d="M445.274,319.548l-43.298-75.772c-1.454-2.546-4.161-4.117-7.094-4.117H117.096c-2.932,0-5.64,1.571-7.094,4.117
			l-43.574,76.255c-1.445,2.528-1.435,5.635,0.026,8.154c1.463,2.52,4.154,4.069,7.067,4.069h35.404v171.574
			c0,4.513,3.657,8.17,8.17,8.17h277.787c4.513,0,8.17-3.657,8.17-8.17V332.255h35.426c4.513,0,8.17-3.657,8.17-8.17
			C446.649,322.406,446.144,320.845,445.274,319.548z M87.6,315.915L121.838,256h120.074l-34.238,59.915H87.6z M386.713,495.66
			H264.159v-57.191c0-4.513-3.657-8.17-8.17-8.17c-4.513,0-8.17,3.657-8.17,8.17v57.191H125.266V332.255h87.149
			c2.932,0,5.64-1.571,7.094-4.117l28.31-49.543v127.192c0,4.513,3.657,8.17,8.17,8.17c4.513,0,8.17-3.657,8.17-8.17V278.596
			l28.31,49.543c1.454,2.546,4.161,4.117,7.094,4.117h87.149V495.66z M304.306,315.915L270.068,256h120.074l34.238,59.915H304.306z"
			/>
	</g>
</g>
</svg>