<?xml version="1.0" encoding="utf-8"?>
<!-- Generator: Adobe Illustrator 27.5.0, SVG Export Plug-In . SVG Version: 6.00 Build 0)  -->
<svg version="1.1" xmlns="http://www.w3.org/2000/svg" xmlns:xlink="http://www.w3.org/1999/xlink" x="0px" y="0px"
	 viewBox="0 0 600 500" style="enable-background:new 0 0 600 500;" xml:space="preserve">
<g id="BACKGROUND">
	<g>
		<g>
			<rect style="fill:#FFFFFF;" width="600" height="500"/>
		</g>
	</g>
</g>
<g id="OBJECTS">
	<g>
		<g>
			<g>
				<path d="M520.727,136.31v178.498H333.899V136.31H520.727 M521.824,135.213H332.802v180.691h189.021V135.213L521.824,135.213z"/>
			</g>
			<rect x="343.584" y="148.361" style="fill:#B5B5FC;" width="167.459" height="154.395"/>
		</g>
		<path style="fill:#B5B5FC;" d="M343.584,248.6l35.711-52.432c8.205-12.047,25.689-12.816,34.92-1.535l58.231,71.165l38.598-49.402
			v86.36H343.584V248.6z"/>
		<circle style="fill:#B5B5FC;" cx="473.355" cy="191.516" r="21.632"/>
	</g>
	<g>
		<g>
			<rect x="205.325" y="34.149" style="opacity:0.4;fill:#7ABDE9;" width="30.229" height="30.229"/>
			<rect x="515.644" y="307.851" style="opacity:0.4;fill:#7ABDE9;" width="26.286" height="26.286"/>
			<rect x="78.907" y="404.066" style="opacity:0.4;fill:#7ABDE9;" width="40.81" height="40.811"/>
		</g>
		<g>
			<g>
				<g>
					<path style="fill:#7ABDE9;" d="M251.797,202.288h-4.235c-1.496,0-2.71-1.213-2.71-2.71v-18.12c0-1.497,1.213-2.71,2.71-2.71
						h4.235c1.497,0,2.71,1.213,2.71,2.71v18.12C254.507,201.075,253.294,202.288,251.797,202.288z"/>
					<path style="fill:#7ABDE9;" d="M281.137,193.367c-0.673,3.156-3.32,3.349-3.32,3.349s2.022,1.09,1.552,2.935
						c-0.47,1.846-2.196,2.637-3.652,2.637l-11.798,0c-1.945,0-3.88-0.378-5.653-1.179c-0.115-0.052-0.227-0.101-0.336-0.147
						c-0.733-0.311-1.2-1.038-1.2-1.834v-17.109c0-0.796,0.197-1.576,0.57-2.28c0.815-1.536,2.216-4.402,2.216-5.941
						c0-2.17-3.027-8.778-0.738-10.221c2.24-1.413,5.685,0.716,6.813,3.635c1.128,2.918,0.434,8.678,1.519,9.763h11.429
						c0,0,3.246-0.147,3.162,3.11c-0.064,2.465-1.791,3.507-1.791,3.507s2.335,0.379,2.071,3.006
						c-0.295,2.941-2.421,3.72-2.421,3.72S281.621,191.096,281.137,193.367z"/>
				</g>
				<g>
					<path style="fill:#7ABDE9;" d="M365.076,398.545h-6.777c-2.395,0-4.336-1.941-4.336-4.336v-28.997
						c0-2.395,1.941-4.336,4.336-4.336h6.777c2.395,0,4.336,1.941,4.336,4.336v28.997
						C369.412,396.604,367.471,398.545,365.076,398.545z"/>
					<path style="fill:#7ABDE9;" d="M412.026,384.269c-1.077,5.05-5.313,5.36-5.313,5.36s3.236,1.745,2.483,4.696
						c-0.753,2.954-3.514,4.22-5.844,4.22l-18.88,0c-3.113,0-6.21-0.605-9.047-1.887c-0.184-0.083-0.364-0.162-0.537-0.235
						c-1.173-0.498-1.921-1.66-1.921-2.935v-27.38c0-1.274,0.314-2.523,0.911-3.649c1.304-2.459,3.546-7.044,3.546-9.507
						c0-3.472-4.845-14.047-1.181-16.357c3.585-2.26,9.097,1.145,10.902,5.816c1.804,4.67,0.694,13.887,2.43,15.623h18.289
						c0,0,5.195-0.235,5.06,4.976c-0.102,3.944-2.865,5.612-2.865,5.612s3.736,0.606,3.315,4.81
						c-0.472,4.706-3.875,5.953-3.875,5.953S412.802,380.634,412.026,384.269z"/>
				</g>
				<g>
					<path style="fill:#7ABDE9;" d="M535.719,259.306h-3.153c-1.114,0-2.018-0.903-2.018-2.018v-13.492
						c0-1.114,0.903-2.018,2.018-2.018h3.153c1.114,0,2.018,0.903,2.018,2.018v13.492
						C537.737,258.403,536.834,259.306,535.719,259.306z"/>
					<path style="fill:#7ABDE9;" d="M557.565,252.664c-0.501,2.35-2.472,2.494-2.472,2.494s1.505,0.812,1.155,2.185
						c-0.35,1.374-1.635,1.963-2.719,1.963l-8.785,0c-1.449,0-2.889-0.282-4.21-0.878c-0.086-0.039-0.169-0.075-0.25-0.109
						c-0.546-0.232-0.894-0.773-0.894-1.365v-12.74c0-0.593,0.146-1.174,0.424-1.698c0.607-1.144,1.65-3.278,1.65-4.423
						c0-1.615-2.254-6.536-0.549-7.611c1.668-1.052,4.233,0.533,5.073,2.706c0.84,2.173,0.323,6.462,1.131,7.269h8.51
						c0,0,2.417-0.109,2.354,2.316c-0.047,1.835-1.333,2.611-1.333,2.611s1.738,0.282,1.542,2.238
						c-0.219,2.19-1.803,2.77-1.803,2.77S557.926,250.973,557.565,252.664z"/>
				</g>
				<g>
					<path style="fill:#7ABDE9;" d="M99.397,379.729h-3.11c-1.099,0-1.99-0.891-1.99-1.99v-13.304c0-1.099,0.891-1.99,1.99-1.99
						h3.11c1.099,0,1.99,0.891,1.99,1.99v13.304C101.387,378.839,100.496,379.729,99.397,379.729z"/>
					<path style="fill:#7ABDE9;" d="M120.939,373.179c-0.494,2.317-2.438,2.459-2.438,2.459s1.485,0.801,1.14,2.155
						c-0.346,1.355-1.613,1.936-2.681,1.936l-8.663,0c-1.429,0-2.849-0.278-4.151-0.866c-0.085-0.038-0.167-0.074-0.247-0.108
						c-0.538-0.228-0.881-0.762-0.881-1.346v-12.563c0-0.585,0.144-1.157,0.418-1.674c0.598-1.128,1.627-3.232,1.627-4.362
						c0-1.593-2.223-6.445-0.542-7.505c1.645-1.037,4.174,0.526,5.002,2.669c0.828,2.143,0.318,6.372,1.115,7.168h8.392
						c0,0,2.383-0.108,2.322,2.283c-0.047,1.81-1.315,2.575-1.315,2.575s1.714,0.278,1.521,2.207
						c-0.216,2.159-1.778,2.731-1.778,2.731S121.295,371.512,120.939,373.179z"/>
				</g>
			</g>
			<g>
				<g>
					
						<ellipse transform="matrix(0.1609 -0.987 0.987 0.1609 -143.0547 270.0491)" style="fill:#EEBD56;" cx="87.289" cy="219.155" rx="13.942" ry="13.942"/>
					<path style="fill:none;stroke:#000000;stroke-linecap:round;stroke-linejoin:round;stroke-miterlimit:10;" d="M94.159,223.628
						c0,0-1.389,3.862-6.87,3.862s-6.87-3.862-6.87-3.862"/>
					<g>
						<path style="fill:none;stroke:#000000;stroke-linecap:round;stroke-linejoin:round;stroke-miterlimit:10;" d="M79.066,216.016
							c0,0,2.25-0.527,3.878,1.292"/>
						<path style="fill:none;stroke:#000000;stroke-linecap:round;stroke-linejoin:round;stroke-miterlimit:10;" d="M95.511,216.016
							c0,0-2.25-0.527-3.878,1.292"/>
					</g>
				</g>
				<g>
					<circle style="fill:#EEBD56;" cx="392.5" cy="56.272" r="17.272"/>
					
						<path style="fill:none;stroke:#000000;stroke-width:1.2388;stroke-linecap:round;stroke-linejoin:round;stroke-miterlimit:10;" d="
						M401.01,61.813c0,0-1.72,4.784-8.51,4.784c-6.79,0-8.511-4.784-8.511-4.784"/>
					<g>
						
							<path style="fill:none;stroke:#000000;stroke-width:1.2388;stroke-linecap:round;stroke-linejoin:round;stroke-miterlimit:10;" d="
							M382.314,52.383c0,0,2.787-0.652,4.804,1.601"/>
						
							<path style="fill:none;stroke:#000000;stroke-width:1.2388;stroke-linecap:round;stroke-linejoin:round;stroke-miterlimit:10;" d="
							M402.686,52.383c0,0-2.787-0.652-4.804,1.601"/>
					</g>
				</g>
			</g>
		</g>
		<g>
			<g>
				<path style="fill:#7ABDE9;" d="M126.943,133.603H61.461c-5.766,0-10.439,4.674-10.439,10.439v18.423
					c0,5.766,4.674,10.439,10.439,10.439h60.038l15.885,15.885v-44.747C137.383,138.277,132.709,133.603,126.943,133.603z"/>
				<g>
					
						<line style="fill:none;stroke:#000000;stroke-width:2;stroke-linecap:round;stroke-linejoin:round;stroke-miterlimit:10;" x1="62.894" y1="142.915" x2="124.489" y2="142.915"/>
					
						<line style="fill:none;stroke:#000000;stroke-width:2;stroke-linecap:round;stroke-linejoin:round;stroke-miterlimit:10;" x1="62.894" y1="152.809" x2="124.489" y2="152.809"/>
					
						<line style="fill:none;stroke:#000000;stroke-width:2;stroke-linecap:round;stroke-linejoin:round;stroke-miterlimit:10;" x1="62.894" y1="162.702" x2="110.574" y2="162.702"/>
				</g>
			</g>
			<g>
				<path d="M96.423,330.799h-42.58c-2.547,0-4.612-2.065-4.612-4.612v-39.255c0-2.547,2.065-4.613,4.612-4.613h42.58
					c2.547,0,4.612,2.065,4.612,4.613v39.255C101.036,328.734,98.971,330.799,96.423,330.799z"/>
				<path style="fill:#CC3B3B;" d="M86.931,304.359l-18.154-12.27c-1.764-1.192-4.144,0.072-4.144,2.201v24.541
					c0,2.129,2.38,3.393,4.144,2.201l18.154-12.27C88.489,307.707,88.489,305.412,86.931,304.359z"/>
			</g>
			<g>
				
					<path style="fill:none;stroke:#000000;stroke-width:0.75;stroke-linecap:round;stroke-linejoin:round;stroke-miterlimit:10;" d="
					M270.193,108.191H166.152c-7.826,0-14.17-6.344-14.17-14.17l0,0c0-7.826,6.344-14.17,14.17-14.17h104.041
					c7.826,0,14.17,6.344,14.17,14.17l0,0C284.363,101.847,278.019,108.191,270.193,108.191z"/>
				<path d="M181.042,100.919l-3.17-3.17c2.241-3.536,1.827-8.283-1.254-11.364c-3.567-3.567-9.371-3.567-12.939,0
					c-3.567,3.567-3.567,9.371,0,12.939c3.081,3.081,7.828,3.495,11.364,1.254l3.169,3.17c0.781,0.781,2.048,0.781,2.828,0
					C181.823,102.966,181.823,101.7,181.042,100.919z M166.509,96.495c-2.008-2.008-2.008-5.274,0-7.282s5.274-2.008,7.282,0
					c2.008,2.008,2.008,5.274,0,7.282C171.783,98.503,168.517,98.503,166.509,96.495z"/>
				<path style="fill:none;stroke:#000000;stroke-width:2;stroke-linecap:round;stroke-miterlimit:10;" d="M247.705,94.959
					c2.256-1.23,4.723-2.451,8.401-3.108c7.149-1.277,11.489,7.066,15.702,6.15"/>
				<path style="fill:none;stroke:#000000;stroke-width:2;stroke-linecap:round;stroke-miterlimit:10;" d="M187.17,95.425
					c0,0,7.706-5.817,12.638-5.872c7.277-0.081,9.702,11.489,14.936,11.617c5.234,0.128,9.894-10.851,16.213-9.574
					c5.466,1.104,2.66,8.444,10.085,6.405c0.83-0.228,1.593-0.502,2.316-0.809"/>
			</g>
			<g>
				<path style="fill:#B5B5FC;" d="M557.831,79.081h-54.564c-5.379,0-9.739,4.36-9.739,9.739l0,0c0,5.379,4.36,9.739,9.739,9.739
					h3.139l-9.771,9.771l27.419-9.771h33.777c5.379,0,9.739-4.36,9.739-9.739l0,0C567.57,83.442,563.209,79.081,557.831,79.081z"/>
				<g>
					
						<line style="fill:none;stroke:#000000;stroke-linecap:round;stroke-miterlimit:10;" x1="503.07" y1="83.741" x2="558.027" y2="83.741"/>
					
						<line style="fill:none;stroke:#000000;stroke-linecap:round;stroke-miterlimit:10;" x1="521.086" y1="88.821" x2="558.027" y2="88.821"/>
					
						<line style="fill:none;stroke:#000000;stroke-linecap:round;stroke-miterlimit:10;" x1="503.07" y1="88.821" x2="517.192" y2="88.821"/>
					
						<line style="fill:none;stroke:#000000;stroke-linecap:round;stroke-miterlimit:10;" x1="503.07" y1="93.9" x2="540.777" y2="93.9"/>
				</g>
			</g>
		</g>
		<g>
			<path style="fill:none;stroke:#000000;stroke-linecap:round;stroke-linejoin:round;stroke-miterlimit:10;" d="M108.975,93.822
				c-11.22,2.157-14.218,5.155-16.374,16.374c-0.204,1.063-1.731,1.063-1.935,0c-2.157-11.22-5.155-14.218-16.374-16.374
				c-1.063-0.204-1.063-1.73,0-1.935c11.22-2.157,14.218-5.155,16.374-16.374c0.204-1.063,1.731-1.063,1.935,0
				c2.156,11.22,5.154,14.218,16.374,16.374C110.038,92.091,110.038,93.618,108.975,93.822z"/>
			<path d="M302.53,128.739c-8.164,1.569-10.345,3.751-11.915,11.915c-0.149,0.773-1.259,0.773-1.408,0
				c-1.569-8.164-3.751-10.345-11.915-11.915c-0.773-0.149-0.773-1.259,0-1.408c8.164-1.569,10.345-3.751,11.915-11.915
				c0.149-0.773,1.259-0.773,1.408,0c1.569,8.164,3.751,10.346,11.915,11.915C303.303,127.48,303.303,128.59,302.53,128.739z"/>
			<path d="M556.862,185.401c-6.381,1.434-8.531,3.584-9.965,9.965c-0.238,1.061-1.755,1.061-1.993,0
				c-1.434-6.381-3.584-8.531-9.965-9.965c-1.061-0.238-1.061-1.755,0-1.993c6.381-1.434,8.531-3.584,9.965-9.965
				c0.239-1.061,1.755-1.061,1.993,0c1.434,6.381,3.584,8.531,9.965,9.965C557.923,183.646,557.923,185.163,556.862,185.401z"/>
			<path d="M348.106,332.679c-3.663,0.823-4.897,2.058-5.721,5.721c-0.137,0.609-1.007,0.609-1.144,0
				c-0.823-3.663-2.057-4.898-5.721-5.721c-0.609-0.137-0.609-1.007,0-1.144c3.663-0.823,4.898-2.058,5.721-5.721
				c0.137-0.609,1.008-0.609,1.144,0c0.823,3.663,2.058,4.898,5.721,5.721C348.716,331.671,348.716,332.542,348.106,332.679z"/>
		</g>
	</g>
	<g>
		<polygon style="fill:#CE623A;" points="361.64,447.763 342.959,416.777 319.902,428.207 342.75,458.493 		"/>
		<polygon points="350.228,428.84 332.268,444.6 319.898,428.21 342.958,416.78 		"/>
		<path style="fill:#EEBD56;" d="M222.794,293.009l68.693,40.413c8.963,5.273,16.272,12.947,21.103,22.155l37.646,71.763
			l-30.333,16.979c0,0-33.708-44.264-41.922-58.596c-6-10.468-4.596-17.617-4.596-17.617l-60.564-34.685L222.794,293.009z"/>
		<path d="M303.678,343.12c-4,6.03-17.67,27.89-21.01,50.03c-1.95-2.92-3.56-5.46-4.69-7.43c-6-10.46-4.59-17.61-4.59-17.61
			l-60.57-34.69l9.98-40.41l68.69,40.41C296.008,336.08,300.098,339.35,303.678,343.12z"/>
		<g>
			<rect x="143.938" y="333.422" style="fill:#802223;" width="93.447" height="8.068"/>
			<rect x="143.938" y="420.502" style="fill:#802223;" width="93.447" height="8.068"/>
			<g>
				<polygon style="fill:#802223;" points="146.025,469.213 128.874,469.213 154.789,341.489 164.746,341.489 				"/>
				<polygon style="fill:#802223;" points="252.448,469.213 235.297,469.213 216.576,341.489 226.533,341.489 				"/>
			</g>
			<g>
				<g>
					<polygon points="164.748,341.49 163.648,349.01 153.258,349.01 154.788,341.49 					"/>
					<polygon points="228.068,349.01 217.678,349.01 216.578,341.49 226.538,341.49 					"/>
				</g>
			</g>
			<polygon points="153.258,420.502 151.982,428.57 156.448,428.57 154.98,420.502 			"/>
		</g>
		<polygon style="fill:#CE623A;" points="208.293,401.198 225.927,376.436 244.406,391.66 229.231,406.991 		"/>
		<polygon points="244.408,391.66 234.088,402.08 219.128,385.98 225.928,376.44 		"/>
		<path style="fill:#EEBD56;" d="M246.986,405.351l-27.367-20.572c0,0,18.203-29.866,29.766-44.757
			c8.426-10.851,13.021-15.574,13.021-15.574l-49.585,8.975h-56.027c-23.951-7.286-11.989-48.745-11.989-48.745
			s2.719-0.489,7.503-1.25H295.25c7.14,0,14.807,1.7,19.57,7.019c8.23,9.192,8.016,25.674-3.039,39.669
			C286.406,362.234,246.986,405.351,246.986,405.351z"/>
		<path d="M145.661,307.372c0,0,10.723,7.149,34.213,2.043c23.489-5.106,41.489-14.425,41.489-14.425l-2.426-6
			c0,0,12-0.128,13.149-5.106l-22.723-0.894L145.661,307.372z"/>
		<g>
			<path d="M202.616,406.353c-1.119,1.37-1.877,2.452-1.877,2.452l42.098,42.19c0,0,1.309-0.571,2.3-2.027
				c0.807-1.145,1.41-2.848,0.996-5.246c-1.574-9.194-16.902-36.731-16.902-36.731l-20.938-5.793
				C206.425,402.002,204.174,404.446,202.616,406.353z"/>
			<path style="fill:#D390BB;" d="M202.616,406.353c-1.23,0.593-2.166,2.161-2.166,2.161l42.705,42.798c0,0,1.771-0.731,1.982-2.346
				L202.616,406.353z"/>
			<path style="fill:none;stroke:#D390BB;stroke-linecap:round;stroke-miterlimit:10;" d="M237.117,421.958
				c0,0-2.778,0.866-6.119,2.578"/>
			<path style="fill:none;stroke:#D390BB;stroke-linecap:round;stroke-miterlimit:10;" d="M233.761,415.418
				c0,0-2.918,1.007-6.26,2.718"/>
		</g>
		<g>
			<path d="M342.39,466.153c0.18,1.76,0.41,3.06,0.41,3.06l59.6,0c0,0,0.52-1.33,0.19-3.06c-0.24-1.38-1.02-3.01-3.01-4.41
				c-7.62-5.38-37.94-13.98-37.94-13.98l-18.89,10.73C342,460.383,342.14,463.703,342.39,466.153z"/>
			<path style="fill:#D390BB;" d="M342.39,466.153c-0.449,1.29,0,3.06,0,3.06l60.46,0c0,0,0.734-1.77-0.26-3.06L342.39,466.153z"/>
			<path style="fill:none;stroke:#D390BB;stroke-linecap:round;stroke-miterlimit:10;" d="M377.805,452.753
				c0,0-1.349,2.578-2.498,6.152"/>
			<path style="fill:none;stroke:#D390BB;stroke-linecap:round;stroke-miterlimit:10;" d="M370.805,450.509
				c0,0-1.349,2.777-2.498,6.351"/>
		</g>
		<polygon points="318.191,283.427 229.409,283.427 229.409,278.234 321.193,278.234 		"/>
		<path d="M260.829,283.43l28.865-49.866c1.811-3.128,5.151-5.054,8.765-5.054h46.509c2.579,0,4.19,2.794,2.898,5.026
			l-28.881,49.894"/>
		<path style="fill:none;stroke:#000000;stroke-linecap:round;stroke-linejoin:round;stroke-miterlimit:10;" d="M163.597,282.319
			c0,0-7.149,23.489,10.723,33.702c14.713,8.407,110.043-3.83,110.043-3.83l-56.862,73.532"/>
		<path style="fill:#D390BB;" d="M229.409,275.033c0,0-15.092-56.265-20.303-69.758c-2.945-7.624-11.323-18.611-25.769-15.617
			c0,0-0.239,0.056-0.66,0.16c-1.878,0.495-2.29-3.384-2.29-3.384c-6.546-1.072-16.535,0.907-16.535,0.907
			c-0.506,7.318-6.124,10.854-8.206,11.92c-0.235,0.109-0.468,0.22-0.702,0.331c-0.033,0.014-0.068,0.029-0.068,0.029l0.012-0.001
			c-6.025,2.857-11.893,6.309-16.32,10.341c-14.576,13.275-21.864,80.951-8.069,92.924c18.529,16.082,84.335-12.494,84.335-12.494
			l-4.425-15.357H229.409z"/>
		<path style="fill:none;stroke:#000000;stroke-linecap:round;stroke-linejoin:round;stroke-miterlimit:10;" d="M203.128,212.106
			c1.787,8.681,4.723,26.17,8.426,46.245"/>
		
			<line style="fill:none;stroke:#000000;stroke-linecap:round;stroke-linejoin:round;stroke-miterlimit:10;" x1="283.47" y1="372.128" x2="324.448" y2="436.468"/>
		<path style="fill:#CE623A;" d="M213.163,285.585l-4.885-17.174c0,0,14.232-4.507,21.622-6.246
			c5.246-1.234,23.034,4.107,25.348,8.904c2.106,0.67,4.859,1.699,4.859,1.699s2.75,1.53,2.723,3.679
			c-0.019,1.453-0.856,1.787-0.856,1.787h-19.72c0,0-0.611,2.241-5.393,5.501C232.08,286.996,218.483,283.086,213.163,285.585z"/>
		<path style="fill:none;stroke:#000000;stroke-width:0.5;stroke-linecap:round;stroke-miterlimit:10;" d="M236.746,270.766
			c0,0,3.926-1.755,6.798-1.564c2.872,0.191,11.154,1.867,11.154,1.867"/>
		<path style="fill:none;stroke:#000000;stroke-width:0.5;stroke-linecap:round;stroke-miterlimit:10;" d="M233.97,265.66
			c0,0,3.064-1.005,5.09-1.197c1.532-0.145,5.792,0.814,5.792,0.814"/>
		<path d="M163.387,272.336c-0.236-2.322-2.854-28.251-2.854-35.017c0,0-0.818,21.841-0.061,35.712
			c-0.986,0.263-1.789,0.515-2.365,0.753c-7.149,2.955-10.34,5.598-10.34,5.598l59.362-13.723
			C207.129,265.659,176.839,269.4,163.387,272.336z"/>
		<g>
			<path style="fill:#CE623A;" d="M167.523,156.092c-5.587,7.106-7.101,18.977,3.305,25.324c9.621,5.869,21.769-2.708,20.89-16.958
				C191.016,153.094,175.693,145.701,167.523,156.092z"/>
			<path d="M195.919,157.529c0-3.025-2.178-5.536-5.051-6.062c0.064-0.171,0.104-0.354,0.104-0.547c0-0.86-0.697-1.556-1.556-1.556
				c-0.333,0-0.639,0.106-0.892,0.284c-0.983-2.217-3.2-3.765-5.781-3.765c-0.693,0-1.358,0.115-1.981,0.321
				c-0.986-1.181-2.45-1.949-4.109-1.949c-1.703,0-3.203,0.808-4.187,2.044c-1.006-0.62-2.187-0.983-3.456-0.983
				c-3.65,0-6.608,2.959-6.608,6.608c0,0.539,0.072,1.061,0.194,1.563c-1.461,0.249-2.575,1.513-2.575,3.045
				c0,0.534,0.148,1.029,0.385,1.468c-0.32,0.133-0.61,0.318-0.882,0.526c-0.051,0.034-0.092,0.08-0.141,0.116
				c-0.113,0.096-0.227,0.189-0.329,0.296c-0.048,0.05-0.11,0.084-0.155,0.139c-0.054,0.066-0.089,0.142-0.135,0.212
				c-0.505,0.668-0.815,1.491-0.815,2.392c0,1.559,0.904,2.896,2.208,3.552c-0.418,0.75-0.676,1.602-0.676,2.521
				c0,2.882,2.336,5.218,5.218,5.218c2.045,0,3.797-1.188,4.653-2.901c0.208,0.028,0.419,0.044,0.635,0.044
				c2.817,0,5.101-2.284,5.101-5.1c0-0.078-0.02-0.15-0.023-0.227c4.149,2.025,11.89,2.656,16.654-0.332
				c0.012-0.365,0.007-0.725-0.013-1.08C194.152,162.558,195.919,160.252,195.919,157.529z"/>
		</g>
		<path style="fill:#802223;" d="M152.548,307.65c-9.22,0.58-17.23-0.59-22.05-4.77c-3.05-2.65-5.08-8.03-6.21-14.95
			C133.748,288.67,148.518,292.33,152.548,307.65z"/>
		<path style="fill:#D390BB;" d="M265.67,283.43l28.865-49.866c1.81-3.128,5.151-5.054,8.765-5.054h46.509
			c2.579,0,4.19,2.794,2.898,5.026l-28.881,49.894"/>
	</g>
	<g>
		<g>
			<path d="M362.074,122.58h-23.926c-1.922,0-3.603-1.291-4.1-3.147l-13.523-50.571c-0.417-1.56,0.758-3.09,2.373-3.09h23.926
				c1.922,0,3.603,1.291,4.1,3.147l13.523,50.571C364.863,121.049,363.688,122.58,362.074,122.58z"/>
			<path style="fill:#CE623A;" d="M357.114,122.58h-23.926c-1.922,0-3.603-1.291-4.1-3.147l-13.523-50.571
				c-0.417-1.56,0.758-3.09,2.372-3.09h23.926c1.922,0,3.603,1.291,4.1,3.147l13.523,50.571
				C359.904,121.049,358.728,122.58,357.114,122.58z"/>
		</g>
		<g>
			<path style="fill:#D390BB;" d="M368.776,106.23c-1.394-3.969-1.462-4.825-1.862-5.955c-1.06-3.04-3.925-7.084-6.669-9.924
				c-2.875-2.975-5.8-1.91-5.87,2.7c-0.08,4.61,4.235,10.812,3.796,13.162c-0.238,1.279-1.786,1.09-3.552,0.356
				c-1.703-0.707-3.209-1.803-4.495-3.123c-1.881-1.931-4.981-5.213-6.314-7.19c-1.979-2.936-4.082-5.089-6.542-5.904
				c-2.202-0.729-4.947,0.742-4.053,3.61c0.039,0.124,0.092,0.256,0.135,0.383c-0.347-0.176-0.699-0.333-1.061-0.453
				c-2.202-0.729-4.947,0.742-4.053,3.61c0.414,1.329,1.094,2.797,1.891,4.312c-1.257,0.508-2.113,1.752-1.556,3.54
				c0.894,2.868,3,6.379,4.947,9.634c1.947,3.255,5.824,6.96,10.42,9.545c5.77,3.246,17.73,4.178,20.699,5.848l13.577-16.252
				C378.213,114.128,370.362,110.745,368.776,106.23z"/>
			<path style="fill:none;stroke:#000000;stroke-width:0.5;stroke-linecap:round;stroke-miterlimit:10;" d="M334.489,95.872
				c0,0,5.489,9.938,10.213,14.129"/>
			<path style="fill:none;stroke:#000000;stroke-width:0.5;stroke-linecap:round;stroke-miterlimit:10;" d="M331.489,102.638
				c0,0,3.638,7.404,7.34,10.979"/>
		</g>
		<path d="M492.787,135.213h8.856c0,0,1.963,10.574-4.356,20.723c-10.522,16.899-29.489,29.202-50.505,26.282L492.787,135.213z"/>
		<path style="fill:#7ABDE9;" d="M492.787,135.12c-6.357-26.147-52.085-46.077-73.149-40.46
			c-10.71,2.856-20.296,15.122-27.134,26.492l-17.642-9.667l-16.213,20.132c0,0,48.081,46.879,76.053,51.092
			C462.675,186.921,497.383,154.021,492.787,135.12z"/>
		<g>
			<defs>
				<path id="SVGID_1_" d="M492.787,135.12c-6.357-26.147-52.085-46.077-73.149-40.46c-10.71,2.856-20.296,15.122-27.134,26.492
					l-17.642-9.667l-16.213,20.132c0,0,48.081,46.879,76.053,51.092C462.675,186.921,497.383,154.021,492.787,135.12z"/>
			</defs>
			<clipPath id="SVGID_00000062175980316507316120000012857754672263392906_">
				<use xlink:href="#SVGID_1_"  style="overflow:visible;"/>
			</clipPath>
			<g style="clip-path:url(#SVGID_00000062175980316507316120000012857754672263392906_);">
				<path style="fill:#7ABDE9;" d="M527.232,156.299c-4.583-2.676-6.126-5.56-7.487-8.103c-1.287-2.406-2.504-4.68-6.355-6.928
					c-3.85-2.249-6.428-2.191-9.156-2.13c-2.884,0.065-6.153,0.138-10.737-2.539c-4.582-2.676-6.124-5.559-7.486-8.102
					c-1.287-2.406-2.503-4.679-6.354-6.928c-3.85-2.248-6.427-2.19-9.155-2.129c-2.884,0.064-6.152,0.138-10.734-2.538
					c-4.583-2.676-6.124-5.559-7.485-8.103c-1.288-2.406-2.504-4.679-6.353-6.927c-3.85-2.248-6.427-2.19-9.155-2.13
					c-2.884,0.065-6.153,0.138-10.735-2.538c-4.582-2.675-6.124-5.559-7.484-8.102c-1.287-2.406-2.503-4.678-6.352-6.926
					c-3.85-2.248-6.426-2.19-9.154-2.129c-2.883,0.065-6.152,0.139-10.733-2.537c-4.581-2.675-6.122-5.558-7.483-8.101
					c-1.287-2.405-2.503-4.678-6.352-6.926c-3.85-2.248-6.426-2.19-9.154-2.129c-2.883,0.065-6.153,0.138-10.734-2.537
					c-4.581-2.675-6.123-5.558-7.483-8.101c-1.287-2.405-2.503-4.678-6.352-6.926l1.513-2.591c4.582,2.676,6.123,5.558,7.484,8.102
					c1.287,2.406,2.502,4.678,6.351,6.925c3.85,2.248,6.426,2.19,9.154,2.129c2.883-0.065,6.152-0.138,10.734,2.537
					c4.582,2.676,6.123,5.558,7.483,8.102c1.287,2.406,2.502,4.678,6.351,6.925c3.849,2.248,6.425,2.19,9.153,2.129
					c2.883-0.065,6.153-0.138,10.734,2.537c4.582,2.676,6.123,5.558,7.483,8.102c1.288,2.406,2.503,4.678,6.353,6.926
					c3.85,2.248,6.427,2.19,9.155,2.13c2.884-0.065,6.153-0.138,10.735,2.538c4.582,2.676,6.124,5.559,7.485,8.103
					c1.288,2.406,2.504,4.679,6.353,6.927c3.85,2.248,6.426,2.19,9.154,2.129c2.884-0.065,6.153-0.138,10.735,2.538
					c4.582,2.676,6.125,5.559,7.486,8.103c1.287,2.406,2.504,4.679,6.353,6.927c3.85,2.249,6.428,2.191,9.157,2.13
					c2.884-0.065,6.153-0.138,10.736,2.539c4.583,2.676,6.126,5.56,7.487,8.103c1.287,2.406,2.504,4.68,6.355,6.928L527.232,156.299
					z"/>
				<path style="fill:#7ABDE9;" d="M518.908,170.552c-4.583-2.676-6.126-5.56-7.487-8.103c-1.287-2.406-2.504-4.68-6.355-6.928
					c-3.851-2.249-6.428-2.191-9.156-2.13c-2.884,0.065-6.153,0.138-10.737-2.539c-4.582-2.676-6.124-5.559-7.486-8.102
					c-1.287-2.406-2.503-4.679-6.354-6.928c-3.85-2.248-6.427-2.19-9.155-2.129c-2.884,0.064-6.152,0.138-10.734-2.538
					c-4.582-2.676-6.124-5.559-7.485-8.103c-1.288-2.406-2.504-4.679-6.353-6.927c-3.85-2.248-6.427-2.19-9.155-2.13
					c-2.884,0.065-6.152,0.138-10.735-2.538c-4.582-2.675-6.124-5.559-7.484-8.102c-1.287-2.406-2.503-4.678-6.352-6.926
					c-3.85-2.248-6.426-2.19-9.154-2.129c-2.883,0.065-6.152,0.139-10.733-2.537c-4.581-2.675-6.123-5.558-7.483-8.101
					c-1.287-2.405-2.503-4.678-6.352-6.926c-3.85-2.248-6.426-2.19-9.154-2.129c-2.883,0.065-6.153,0.138-10.734-2.537
					c-4.581-2.675-6.123-5.558-7.483-8.101c-1.287-2.405-2.503-4.678-6.352-6.926l1.513-2.591c4.582,2.675,6.123,5.558,7.484,8.102
					c1.286,2.406,2.502,4.678,6.351,6.925c3.85,2.248,6.426,2.19,9.154,2.129c2.883-0.065,6.153-0.138,10.734,2.537
					c4.582,2.676,6.124,5.558,7.484,8.102c1.287,2.406,2.502,4.678,6.351,6.926c3.849,2.248,6.425,2.19,9.153,2.128
					c2.883-0.065,6.153-0.138,10.734,2.537c4.582,2.676,6.124,5.558,7.484,8.102c1.288,2.406,2.503,4.678,6.352,6.926
					c3.85,2.248,6.427,2.19,9.155,2.13c2.884-0.065,6.153-0.138,10.735,2.538c4.582,2.676,6.124,5.559,7.485,8.103
					c1.288,2.406,2.504,4.679,6.353,6.927c3.85,2.248,6.426,2.19,9.154,2.129c2.884-0.065,6.153-0.138,10.735,2.538
					c4.582,2.676,6.125,5.559,7.486,8.103c1.287,2.406,2.504,4.679,6.353,6.927c3.85,2.249,6.429,2.191,9.157,2.13
					c2.884-0.065,6.153-0.137,10.736,2.539c4.583,2.676,6.126,5.56,7.487,8.103c1.288,2.406,2.504,4.68,6.355,6.928L518.908,170.552
					z"/>
				<path style="fill:#7ABDE9;" d="M510.585,184.805c-4.583-2.676-6.126-5.56-7.487-8.103c-1.287-2.406-2.504-4.68-6.355-6.928
					c-3.85-2.249-6.428-2.191-9.156-2.13c-2.884,0.065-6.153,0.138-10.737-2.539c-4.582-2.676-6.124-5.559-7.486-8.102
					c-1.287-2.406-2.503-4.679-6.354-6.928c-3.85-2.248-6.427-2.19-9.155-2.129c-2.884,0.064-6.152,0.138-10.734-2.538
					c-4.582-2.676-6.124-5.559-7.485-8.103c-1.288-2.406-2.504-4.679-6.353-6.927c-3.85-2.248-6.427-2.19-9.155-2.13
					c-2.884,0.065-6.152,0.138-10.735-2.538c-4.582-2.676-6.124-5.559-7.484-8.102c-1.287-2.406-2.503-4.678-6.352-6.926
					c-3.85-2.248-6.426-2.19-9.154-2.129c-2.883,0.065-6.152,0.139-10.733-2.537c-4.581-2.675-6.123-5.558-7.483-8.101
					c-1.287-2.405-2.503-4.678-6.352-6.926c-3.85-2.248-6.426-2.19-9.154-2.129c-2.883,0.065-6.153,0.138-10.734-2.537
					c-4.581-2.675-6.123-5.558-7.483-8.101c-1.287-2.405-2.503-4.678-6.352-6.926l1.513-2.591c4.582,2.675,6.123,5.558,7.483,8.102
					c1.287,2.406,2.502,4.678,6.351,6.926c3.85,2.248,6.426,2.19,9.154,2.129c2.883-0.065,6.153-0.138,10.734,2.537
					c4.582,2.676,6.123,5.558,7.484,8.102c1.287,2.406,2.502,4.678,6.351,6.925c3.849,2.248,6.425,2.19,9.153,2.128
					c2.883-0.065,6.153-0.138,10.734,2.537c4.582,2.676,6.123,5.558,7.484,8.102c1.288,2.406,2.503,4.678,6.352,6.926
					c3.85,2.248,6.427,2.19,9.155,2.13c2.884-0.065,6.152-0.138,10.735,2.538c4.582,2.676,6.124,5.559,7.485,8.103
					c1.288,2.406,2.504,4.679,6.353,6.927c3.85,2.248,6.426,2.19,9.154,2.129c2.884-0.065,6.153-0.138,10.735,2.538
					c4.582,2.676,6.125,5.559,7.486,8.103c1.287,2.406,2.504,4.679,6.353,6.927c3.851,2.249,6.428,2.191,9.157,2.13
					c2.884-0.065,6.153-0.137,10.736,2.539c4.583,2.677,6.126,5.56,7.487,8.103c1.287,2.406,2.504,4.68,6.355,6.928L510.585,184.805
					z"/>
				<path style="fill:#7ABDE9;" d="M502.261,199.057c-4.583-2.677-6.126-5.56-7.487-8.103c-1.288-2.406-2.504-4.68-6.355-6.928
					c-3.85-2.249-6.428-2.191-9.156-2.13c-2.884,0.065-6.153,0.138-10.737-2.539c-4.582-2.676-6.124-5.559-7.486-8.102
					c-1.287-2.406-2.503-4.679-6.354-6.928c-3.85-2.248-6.427-2.19-9.155-2.129c-2.884,0.064-6.152,0.138-10.734-2.538
					c-4.582-2.676-6.124-5.559-7.485-8.103c-1.288-2.406-2.504-4.679-6.353-6.927c-3.85-2.248-6.427-2.19-9.155-2.129
					c-2.884,0.065-6.153,0.138-10.735-2.538c-4.582-2.676-6.124-5.559-7.484-8.102c-1.287-2.406-2.503-4.678-6.352-6.926
					c-3.85-2.248-6.426-2.19-9.154-2.129c-2.883,0.065-6.152,0.139-10.733-2.537c-4.581-2.675-6.123-5.558-7.483-8.101
					c-1.287-2.405-2.503-4.678-6.352-6.926c-3.85-2.248-6.426-2.19-9.154-2.129c-2.883,0.065-6.153,0.138-10.734-2.537
					c-4.581-2.675-6.123-5.558-7.483-8.101c-1.287-2.405-2.503-4.678-6.352-6.926l1.513-2.591c4.582,2.676,6.123,5.558,7.484,8.102
					c1.286,2.406,2.502,4.678,6.351,6.925c3.85,2.248,6.426,2.19,9.154,2.129c2.883-0.065,6.152-0.138,10.734,2.537
					c4.582,2.676,6.123,5.558,7.484,8.102c1.287,2.406,2.502,4.678,6.351,6.926c3.849,2.248,6.425,2.19,9.153,2.128
					c2.883-0.065,6.153-0.138,10.734,2.537c4.582,2.676,6.123,5.558,7.484,8.102c1.288,2.406,2.503,4.678,6.353,6.927
					c3.85,2.248,6.427,2.19,9.155,2.13c2.884-0.065,6.153-0.138,10.735,2.538c4.582,2.676,6.124,5.559,7.485,8.103
					c1.288,2.406,2.504,4.679,6.353,6.927c3.85,2.248,6.426,2.19,9.154,2.129c2.884-0.065,6.153-0.139,10.735,2.538
					c4.582,2.676,6.125,5.559,7.486,8.103c1.287,2.406,2.504,4.679,6.353,6.927c3.85,2.249,6.428,2.191,9.157,2.13
					c2.884-0.065,6.153-0.137,10.736,2.539c4.583,2.676,6.126,5.56,7.487,8.103c1.287,2.406,2.504,4.68,6.355,6.928L502.261,199.057
					z"/>
				<path style="fill:#7ABDE9;" d="M493.938,213.31c-4.583-2.677-6.126-5.56-7.487-8.103c-1.287-2.406-2.504-4.68-6.355-6.928
					c-3.851-2.249-6.428-2.191-9.156-2.13c-2.884,0.065-6.153,0.138-10.737-2.539c-4.582-2.676-6.124-5.559-7.486-8.102
					c-1.287-2.406-2.503-4.679-6.354-6.928c-3.85-2.248-6.427-2.19-9.155-2.129c-2.884,0.064-6.152,0.138-10.734-2.538
					c-4.582-2.676-6.124-5.559-7.485-8.103c-1.288-2.406-2.504-4.679-6.353-6.927c-3.85-2.248-6.427-2.19-9.155-2.129
					c-2.884,0.065-6.152,0.138-10.735-2.538c-4.582-2.676-6.124-5.559-7.484-8.102c-1.287-2.406-2.503-4.678-6.352-6.926
					c-3.85-2.248-6.426-2.19-9.154-2.129c-2.883,0.065-6.152,0.139-10.733-2.537c-4.581-2.675-6.123-5.558-7.483-8.101
					c-1.287-2.405-2.503-4.678-6.352-6.926c-3.85-2.248-6.426-2.19-9.154-2.129c-2.883,0.065-6.153,0.138-10.734-2.537
					c-4.581-2.675-6.123-5.558-7.483-8.101c-1.287-2.405-2.503-4.678-6.352-6.926l1.513-2.591c4.582,2.676,6.123,5.558,7.484,8.102
					c1.286,2.406,2.502,4.678,6.351,6.926c3.85,2.248,6.426,2.19,9.154,2.129c2.883-0.065,6.153-0.138,10.734,2.537
					c4.582,2.675,6.124,5.558,7.484,8.102c1.287,2.406,2.502,4.678,6.351,6.925c3.849,2.248,6.425,2.19,9.153,2.128
					c2.883-0.065,6.153-0.138,10.734,2.537c4.582,2.676,6.124,5.558,7.484,8.102c1.288,2.406,2.503,4.678,6.352,6.926
					c3.85,2.248,6.427,2.19,9.155,2.13c2.884-0.065,6.153-0.138,10.735,2.538c4.582,2.676,6.124,5.559,7.485,8.103
					c1.288,2.406,2.504,4.679,6.353,6.927c3.85,2.248,6.426,2.19,9.154,2.129c2.884-0.065,6.153-0.138,10.735,2.538
					c4.583,2.676,6.125,5.559,7.486,8.103c1.287,2.406,2.504,4.679,6.353,6.927c3.85,2.249,6.428,2.191,9.157,2.13
					c2.884-0.065,6.153-0.137,10.736,2.539c4.583,2.677,6.126,5.56,7.487,8.103c1.287,2.406,2.504,4.68,6.355,6.928L493.938,213.31z
					"/>
			</g>
		</g>
		<polygon points="453.915,131.809 438.787,145.787 392.5,121.155 436.489,139.468 		"/>
		<g>
			<path style="fill:#D390BB;" d="M472.862,72.701c1.965,8.823-1.803,20.182-13.93,21.405
				c-11.213,1.131-18.458-11.855-11.503-24.324C452.976,59.839,469.989,59.8,472.862,72.701z"/>
			<path d="M472.862,72.699c0.425,1.913,0.58,3.956,0.44,5.984c-9.185,4.979-19.15,0.823-20.281-5.993
				c-1.782,2.194-5.892,3.66-7.6,1.945c0.441-1.606,1.106-3.231,2.008-4.847C452.976,59.839,469.987,59.799,472.862,72.699z"/>
		</g>
	</g>
	<g>
		
			<line style="fill:none;stroke:#000000;stroke-width:0.75;stroke-linecap:round;stroke-miterlimit:10;" x1="51.213" y1="469.213" x2="493.17" y2="469.213"/>
		
			<line style="fill:none;stroke:#000000;stroke-width:0.75;stroke-linecap:round;stroke-miterlimit:10;" x1="391.553" y1="430.69" x2="567.213" y2="430.69"/>
		<g>
			<path d="M457.17,397.085c0,0-7.66-17.234-8.808-35.872c0,0,8.171,8.553,15.575,34.468"/>
			<path style="fill:#51AD9B;" d="M450.532,402.08c0,0-14.17-19.676-15.83-38.314c0,0,15.319,9.491,24,29.384
				c0,0-5.106-34.746,3.064-55.682c0,0,7.915,18.383,7.915,45.702c0,0,4.596-18.638,11.489-27.574c0,0,0.511,15.364-5.872,37.554
				c0,0,6.638-14.449,17.872-22.299c0,0,0.255,12.607-11.234,31.229"/>
			<g>
				<polygon style="fill:#FFFFFF;" points="438.846,402.08 453.704,469.213 477.615,469.213 492.473,402.08 				"/>
				<polygon style="opacity:0.4;fill:#7ABDE9;" points="438.846,402.08 453.704,469.213 465.66,469.213 465.66,402.08 				"/>
				
					<polygon style="fill:none;stroke:#000000;stroke-width:0.75;stroke-linecap:round;stroke-linejoin:round;stroke-miterlimit:10;" points="
					465.659,402.08 438.846,402.08 453.704,469.213 465.659,469.213 477.615,469.213 492.473,402.08 				"/>
			</g>
		</g>
		<path style="fill:none;stroke:#000000;stroke-width:0.75;stroke-linecap:round;stroke-linejoin:round;stroke-miterlimit:10;" d="
			M49.231,415.418c0,0,9.514-18.461,29.676-16.674c27.71,2.456,29.522,31.787,21.199,31.787c-5.809,0-9.144-18.074,12.189-22.085
			c23.3-4.381,36.194,14.8,29.523,32.809c9.07-5.226,35.969-2.394,25.246,27.957"/>
		<path style="fill:none;stroke:#000000;stroke-linecap:round;stroke-linejoin:round;stroke-miterlimit:10;" d="M500.447,430.69
			c0,0-0.335-13.132,9.814-18.302c10.149-5.17,19.867,0.527,19.867,0.527s2.681-26.043,27-25.468"/>
	</g>
</g>
</svg>
