<svg xmlns="http://www.w3.org/2000/svg" width="100%" viewBox="0 0 1024 1024" height="150"
    xmlns:v="https://vecta.io/nano">
    <path
        d="M830.076 322.058l-21.289 24.884-20.423 23.933c-3.081 3.445-3.108 6.278-.06 9.499 7.084 7.485 14.419 14.736 20.905 22.779 11.174 13.855 23.848 26.387 35.312 40.009 7.975 9.477 16.989 18.09 25.708 26.936 8.495 8.618 17.579 16.639 25.46 25.948 4.84 5.717 11.11 10.411 17.58 14.647 17.424 11.408 36.974 18.043 55.998 25.939 8.62 3.578 17.384 6.665 26.16 9.765 4.157 1.468 6.182 4.164 4.693 8.406-1.472 4.193-5.047 4.492-8.703 3.289-6.464-2.127-12.881-4.403-19.269-6.749-3.473-1.275-5.693-.419-8.07 2.594-11.694 14.823-21.777 30.758-30.101 47.565-5.568 11.242-10.006 23.191-14.921 34.805-5.206 12.302-10.199 24.689-13.41 37.514-3.418 13.656-8.091 27.026-10.177 41.023-.651 4.367.378 7.568 4.777 9.146 19.599 7.031 37.629 17.628 57.038 25.096 5.441 2.093 7.121 5.273 5.207 9.431-2.023 4.395-6.034 5.908-10.385 2.907-7.81-5.387-16.975-7.562-25.346-11.582l-39.817-18.514c-4.146-1.943-6.209-7.808-5.051-13.911.526-2.773.996-5.605 1.962-8.238 1.926-5.251-.518-8.191-4.838-10.467-14.212-7.49-28.848-11.603-45.086-7.315-6.533 1.725-13.279 2.906-20.148 3.076-4.513.112-5.31 1.844-2.596 5.553 10.398 14.213 19.568 29.243 29.072 44.033 5.676 8.832 12.41 17 17.514 26.087 11.089 19.742 24.24 38.153 35.844 57.542.919 1.535 1.483 3.341 1.927 5.093 2.3 9.084-.285 13.795-9.35 15.893-16.83 3.896-33.479 8.46-50.158 12.928l-81.805 21.813-69.163 18.962-61.953 17.068c-11.308 3.419-22.576 6.74-34.098 9.406-8.361 1.935-16.06 6.333-24.623 7.949-9.976 1.882-19.414 5.693-29.192 8.287l-43.293 11.464c-11.325 3.197-22.426 7.189-33.748 10.398L412.026 979.4c-6.203 1.741-12.44 3.329-18.518 5.694-5.786 2.251-12.155 3.059-18.175 4.936-7.607 2.372-15.416 4.097-23.026 6.463-14.414 4.481-21.261.207-26.387-11.783-5.485-12.83-11.605-25.375-17.473-38.014-5.447-11.731-11.302-23.346-16.342-35.224l-15.709-36.089-23.16-51.918c-8.96-20.923-18.579-41.543-27.874-62.311l-31.583-71.049c-6.115-13.446-12.07-26.933-17.532-40.664-2.625-6.599-6.372-12.808-9.753-19.094-2.41-4.48-3.233-9.363-5.296-13.896l-22.372-50.5-34.796-75.542c-7.532-15.86-15.544-31.525-22.107-47.924-4.198-10.491-9.682-20.726-14.794-30.975-4.218-8.457-7.606-17.362-10.868-26.25-1.922-5.237 2.239-11.414 7.677-12.541l101.886-20.945 36.178-6.634a796.79 796.79 0 0 1 29.232-5.296c12.765-2.068 25.129-6.023 38.049-7.367 5.715-.594 11.215-3.045 16.923-3.964 15.571-2.505 30.721-7.157 46.262-9.51 25.078-3.797 49.756-9.634 74.779-13.721 13.395-2.188 27.044-3.556 40.14-6.949 12.23-3.169 24.737-4.687 36.98-7.756 9.378-2.351 19.052-4.199 28.74-5.672 12.396-1.885 24.855-3.746 37.062-6.877 7.391-1.895 14.903-3.716 22.595-1.371 6.01 1.832 11.676 4.756 15.456 9.627 8.673 11.176 19.178 20.899 26.412 33.199 1.82 3.094 4.256 2.991 7.268 2.09 8.58-2.565 17.08-5.955 25.865-7.141 11.787-1.591 23.274-5.131 35.387-4.879 13.27.277 24.93 5.119 36.416 10.919 1.632.824 3.439 1.47 4.802 2.627 7.784 6.61 9.965 3.901 15.973-2.872l56.81-64.338c6.241-6.913 12.159-14.124 18.596-20.839 9.625-10.038 19.399-19.957 29.532-29.478 10.057-9.449 32.003-7.683 41.142 2.666 3.088 3.496 5.774 7.217 8.283 11.132 4.939 7.709 5.089 17.965-.618 25.379-6.179 8.028-11.864 16.479-18.375 24.166-4.784 5.648-10.318 10.786-15.058 16.561l-20.703 25.598c-3.081 3.671-6.851 6.759-9.878 10.98M333.162 712.436c-11.541.391-19.105 7.723-26.372 15.37-2.137 2.249-4.299 3.185-7.051 2.084-2.997-1.198-3.325-3.89-3.006-6.711.21-1.86.836-3.584 2.162-4.94 8.257-8.446 17.465-15.393 29.331-17.871 6.803-1.42 13.17-1.13 18.299 4.693 4.201 4.769 5.594 4.683 10.062.206 1.995-1.999 3.76-4.229 5.606-6.374 2.947-3.424 6.096-6.615 10.147-8.749 5.685-2.995 11.466-2.04 15.859 2.584 6.489 6.831 7.117 6.867 14.376.681a34.59 34.59 0 0 0 2.887-2.765c6.963-7.488 13.996-9.478 23.569-1.909 4.474 3.537 8.021 2.789 10.501-2.302 6.827-14.016 12.912-28.411 20.173-42.191 4.809-9.126 6.993-19.474 13.394-27.797l9.433-12.529c-1.502-2.293-3.479-2.402-5.491-2.646-8.886-1.081-15.411-5.027-18.99-13.859-3.347-8.258-3.14-16.46-1.998-24.94 1.229-9.126 4.85-17.606 6.878-26.508 1.325-5.819 1.545-11.815 3.246-17.606 2.993-10.187 6.193-20.381 8.147-30.79 2.849-15.174 6.954-30.06 9.703-45.238 1.58-8.723 5.233-16.843 7.322-25.347 3.697-15.055 7.303-30.095 15.403-43.463 7.081-11.687 15.653-21.976 29.742-25.842 4.475-1.228 8.741-3.206 13.203-4.493 16.221-4.68 31.418-12.756 48.52-14.542 4.378-.457 5.615-3.372 2.804-6.956-7.176-9.15-14.371-18.305-22.001-27.073-5.526-6.35-12.957-7.657-20.998-5.723-1.614.388-3.167 1.155-4.795 1.345-16.32 1.911-32.014 7.032-48.447 8.754-13.449 1.409-26.449 6.163-39.96 8.051-11.968 1.672-23.569 5.372-35.684 6.472-5.724.52-11.406 1.627-17.012 3.447-7.064 2.293-14.616 2.916-21.946 4.208l-29.818 5.221c-8.109 1.649-16.004 4.636-24.386 4.704-4.074.033-7.929.827-11.708 2.124-8.515 2.924-17.446 4.398-26.21 5.691-11.034 1.628-21.936 3.951-32.718 6.394-24.281 5.502-48.887 9.146-73.238 14.162-13.316 2.743-26.809 4.479-40.007 7.989-8.446 2.246-17.059 4.619-25.677 5.626-17.386 2.03-34.048 7.25-51.192 10.233-5.122.891-5.666 2.676-3.522 7.311l20.445 44.24c7.555 17.038 15.747 33.766 23.526 50.687l25.775 55.671c3.968 8.94 7.655 18.018 11.975 26.784 3.141 6.374 6.403 12.646 8.878 19.339 4.307 11.647 9.812 22.803 14.146 34.464 3.704 9.964 9.349 19.095 13.555 28.901 4.19 9.769 8.193 19.654 12.814 29.21 5.65 11.682 10.008 23.898 15.798 35.527 6.951 13.96 12.938 28.4 19.362 42.624l15.372 33.955c5.429 12.145 10.369 24.526 16.232 36.456 6.747 13.727 12.38 27.945 18.363 41.967l13.528 30.996c4.115 9.7 8.461 19.446 13.175 28.971l25.278 52.532c1.459 2.839 2.829 3.927 6.176 2.925l54.059-15.579c6.142-1.596 11.758-4.528 17.995-5.73 13.396-2.581 26.197-7.38 39.287-11.087 9.721-2.753 19.535-5.237 29.188-8.354 15.269-4.93 31.016-8.366 46.51-12.62 13.924-3.823 27.963-7.352 41.618-11.993 18.111-6.155 36.682-10.575 55.153-15.261 12.896-3.272 25.248-8.1 38.153-11.335 27.048-6.779 53.878-14.445 80.717-22.031l66.816-18.161c20.405-5.883 41.116-10.722 61.758-15.75 4.56-1.111 5.03-2.946 2.792-6.526-3.875-6.199-9.223-11.462-12.021-18.325-5.385-13.206-14.482-24.239-21.882-36.183-8.269-13.346-17.208-26.433-25.642-39.708-8.39-13.206-17.139-26.063-26.578-38.496-1.851-2.437-3.977-4.566-7.333-4.619-16.904-.267-32.572-6.104-48.353-11.105-19.007-6.024-37.058-14.617-55.614-21.866-5.404-2.111-6.308-1.649-7.349 3.872-3.068 16.276-18.735 24.667-34.173 18.21-3.541-1.481-6.797-2.057-10.355.084-5.17 3.111-10.609 2.606-16.38 1.361-8.64-1.863-15.258-6.349-20.35-13.312-2.342-3.203-3.962-3.258-6.972-.3-11.377 11.18-33.174 9.757-43.58-2.449l-14.36-16.617c-2.212-2.698-3.921-2.672-6.589-.595-13.903 10.829-28.523 20.644-43.345 30.163-12.208 7.84-25.354 13.854-38.419 20.064-8.103 3.852-12.816 3.78-19.594-1.985-2.32-1.973-4.05-2.053-6.53-.293-4.485 3.184-8.09 7.458-12.96 10.149-8.234 4.55-15.516 3.043-20.62-4.73-1.731-2.636-3.405-2.973-5.678-1.244-1.978 1.505-4.11 2.982-5.603 4.913-2.662 3.442-5.719 6.478-8.726 9.578-7.133 7.355-15.373 7.034-21.591-.859-1.554-1.973-2.952-4.074-6.39-4.72m337.434-207.363l-36.323 39.657c-1.697 1.867-5.09 3.196-4.127 6.277 1.047 3.348 4.714 2.398 7.361 3.003.803.183 1.641.473 2.434.4 11.232-1.032 22.466-2.052 33.455-4.797 2.385-.596 4.356-1.492 5.155-4.096 5.75-18.732 11.8-37.397 13.006-57.155.235-3.841 2.002-5.568 5.901-5.886 4.173-.34 5.796 1.943 6.49 5.336.635 3.104.486 6.249-.02 9.421-2.256 14.137-6.15 27.869-10.104 41.588-.537 1.865-.957 3.567.836 4.976 1.623 1.275 3.112.46 4.657-.234 4.858-2.183 9.661-4.521 14.637-6.398 3.13-1.181 6.408-.892 8.299 2.472 1.815 3.229.188 5.797-2.234 7.892-1.243 1.075-2.704 1.946-4.172 2.705-7.436 3.843-15.559 5.74-23.484 8.203-12.269 3.813-24.919 5.428-37.615 7.053-12.049 1.542-23.804 1.035-35.542-2.063-11.691-3.086-23.474-5.703-35.651-6.141-9.41-.339-18.75-1.534-28.229-1.337-9.614.2-19.176 1.045-27.157 6.266-10.317 6.748-20.512 13.705-23.692 27.455-2.698 11.668.99 20.281 7.938 25.33 11.053 8.031 23.698 10.966 36.759 12.939 4.466.675 6.494-1.042 5.257-5.123-3.458-11.405-1.174-22.809-.524-34.19.414-7.249.477-7.224-6.875-8.58-7.133-1.315-14.214-.677-21.329-.587-2.39.03-4.849-.064-5.723-2.895-.855-2.772.541-4.891 2.54-6.57 2.508-2.109 5.588-3.255 8.778-3.145 9.419.323 18.9.345 27.929 3.757 5.98 2.26 8.333 6.974 7.665 13.293-1.256 11.881-2.637 23.809-.459 35.761 1.466 8.042 6.608 13.56 14.589 15.335 2.746.611 5.577.836 8.326 1.432 14.615 3.166 29.477 4.22 44.342 5.201 8.127.536 16.397.083 24.38 1.414 18.37 3.062 36.25 7.898 53.337 15.735 6.892 3.161 13.643 6.847 20.904 9.176 14.852 4.765 29.618 9.776 45.061 12.553 15.063 2.709 30.05 2.602 45.077.326 7.872-1.192 15.642-3.305 23.545-3.987 12.479-1.076 23.851 3.674 34.992 8.522 7.132 3.103 8.499 2.743 10.265-4.902 1.083-4.686 1.255-9.566 2.912-14.134 10.409-28.697 20.356-57.607 36.1-83.993 6.291-10.543 12.897-20.906 19.644-31.164 3.719-5.654 3.731-7.117-2.574-9.409-13.493-4.906-26.306-11.358-38.443-18.777-11.6-7.091-21.701-16.453-30.815-26.673-12.707-14.248-27.381-26.53-39.763-41.197-10.123-11.991-20.982-23.473-31.693-35.016-8.793-9.476-16.662-19.843-25.847-29.028-3.793-3.793-6.469-4.138-9.95.067-7.214 8.715-15.493 16.6-22.16 25.642-11.116 15.076-25.25 27.322-37.013 41.784-12.886 15.844-27.033 30.663-41.055 46.508M558.081 457.66c4.234-13.95 9.371-27.863 1.742-42.307-.142-.269-.088-.657-.081-.989.067-2.979-.392-6.352 3.096-7.754 3.571-1.436 6.041.906 8.149 3.349 3.147 3.649 4.218 8.32 5.18 12.797 1.005 4.674 3.458 5.835 7.498 4.496l41.064-13.878c4.776-1.652 8.118-4.598 9.192-10.068.981-4.996 2.009-10.1 4.939-14.529 2.547-3.851 6.609-3.967 9.15-.063 1.664 2.557 1.656 5.343.845 8.174-1.236 4.315-2.619 8.592-3.712 12.942-1.045 4.159-1.917 8.372-2.62 12.602-.242 1.454.327 3.058 1.883 3.788 1.287.605 2.254-.295 3.045-1.14l16.596-17.903c5.837-6.595 11.359-13.467 17.143-20.11l39.467-45.013c2.827-3.189 1.948-5.139-1.239-7.099-6.253-3.846-12.8-7.136-19.67-9.645-18.066-6.599-35.923-1.532-53.435 2.291-17.002 3.712-33.509 9.646-50.332 14.244-5.742 1.57-11.578 2.497-17.225 4.739-9.403 3.733-19.001 7.336-28.844 9.531-22.764 5.076-33.201 21.729-40.4 41.474-3.282 9.001-4.843 18.697-8.111 27.617-6.158 16.806-9.147 34.402-12.416 51.654-3.991 21.062-11.359 41.242-14.372 62.473-1.616 11.39-7.217 21.882-7.167 33.823.043 10.379 9.954 19.248 19.91 16.441 2.498-.704 4.471-2.117 5.305-4.773 4.543-14.466 14.699-24.677 27.073-32.097 7.811-4.684 12.672-9.877 14.72-18.785 2.798-12.173 6.678-23.97 1.753-36.587-2.166-5.547.066-8.829 5.801-10.565 1.87-.566 3.159-1.275 4.188-3.062 4.657-8.089 9.067-16.271 11.887-26.066m148.836-80.28c-5.195 6.706-11.385 12.516-16.738 19.126-16.619 20.518-35.601 38.949-52.971 58.821l-25.091 28.977c-13.734 15.984-28.537 31.046-42.801 46.578-3.385 3.686-7.068 7.204-10.147 12.33l20.652 1.469c9.413.894 18.953.971 28.16 3.298 3.436.868 5.695.172 7.953-2.283l33.809-36.595c9.29-10.186 18.123-20.801 27.637-30.768 11.363-11.904 21.489-24.873 32.841-36.808 12.354-12.988 23.469-27.151 35.178-40.755 13.228-15.368 27.341-29.946 40.247-45.611 11.293-13.708 23.133-26.964 34.635-40.501l26.557-31.749c3.599-4.339 7.095-8.766 10.541-13.228 1.92-2.486 2.641-4.93-.56-7.22-9.443-6.755-19.233-13.075-27.658-22.395L706.917 377.38M592.175 480.539c4.731-1.76 9.342-4.012 12.554-7.868 4.361-5.237 9.12-10.124 13.435-15.342 5.997-7.251 14.495-13.535 11.86-25.233-1.227-5.446-2.175-6.671-7.586-4.75-14.074 4.997-28.096 10.151-42.743 13.293-2.932.629-4.524 2.306-5.207 5.255-3.548 15.326-9.367 29.762-17.54 43.203-3.889 6.396-6.747 12.928-5.672 20.687.363 2.617-.486 5.307-.575 7.914-.152 4.474-2.21 8.913-.668 14.849 4.08-4.257 7.144-7.969 10.727-11.082 7.062-6.138 11.499-13.22 9.974-22.988-.64-4.1 1.392-6.619 4.834-8.368 5.488-2.79 10.84-5.817 16.607-9.569M477.21 635.589l-9.598 20.794c-.736 1.611-1.962 3.208-.506 5.093l6.686 8.81c16.929-10.759 33.496-21.228 49.543-35.349-13.379-4.894-23.803-11.045-30.01-22.65-8.508 5.903-12.315 14.151-16.114 23.303m390.509-381.028c3.018.273 4.387-2.063 5.955-3.92 2.144-2.54 3.982-5.34 6.156-7.852 7.007-8.095 7.222-10.51 1.427-19.442-.268-.413-.419-.901-.644-1.344-4.534-8.945-14.896-12.39-24.07-8.186-5.517 2.529-8.515 7.824-13.071 11.43-5.359 4.242-5.102 5.581.077 10.03.755.649 1.394 1.431 2.142 2.09 6.834 6.02 13.913 11.733 22.028 17.195M583.568 653.535c-.97-2.286-.457-5.388-4.021-6.156-12.593-2.714-25.363-4.59-37.815-7.986-1.303-.355-2.894-1.218-4.155.352-.824 1.885.575 3.094 1.351 4.51 3.76 6.862 10.355 11.126 15.428 16.79 8.692 9.704 25.378 5.718 29.213-7.511m29.357 18.324c1.918 1.404 4.197.763 6.297 1.035 4.47.579 6.587-1.33 6.317-5.874-.185-3.12-.893-6.213-1.453-9.303-.503-2.775-2.3-4.473-5.007-4.865-6.387-.925-12.786-1.83-19.209-2.412-3.488-.316-4.998 2.201-2.587 4.523 5.381 5.183 9.088 11.844 15.643 16.898m39.363 1.581c4.913-1.135 8.058-4.275 10.092-8.758 1.83-4.035.084-7.384-4.263-8.487-6.189-1.57-12.538-.295-18.764-1.252-1.937-.298-2.913 1.093-2.975 3.111-.233 7.504 1.885 10.666 9.072 13.293 2.018.738 4.07 1.384 6.839 2.093z" />
    <path
        d="M580.032 127.737c9.486-3.294 18.571-6.467 28.529-4.192 3.155.721 5.613-.45 6.023-4.166 1.29-11.676 7.737-20.505 16.68-27.191 10.689-7.992 22.769-13.24 36.56-12.452 5.943.339 11.996 1.024 17.377 3.894 3.265 1.741 5.406.786 7.149-1.955 11.136-17.514 28.471-22.421 47.719-24.114 11.787-1.037 21.489 3.745 30.773 9.646 10.81 6.872 15.496 18.003 18.12 29.921.886 4.025 1.978 5.47 6.102 4.547 16.204-3.628 29.79 1.975 41.674 12.558 5.277 4.7 7.209 11.515 9.266 17.966 4.076 12.781 2.489 25.05-3.206 37.259-3.878 8.315-10.554 13.022-17.958 17.113-12.112 6.694-25.298 9.754-39.041 10.847-9.444.751-18.763 2.814-28.264 3.017-8.127.174-16.329.631-24.352.364-5.763-.192-11.768-.172-17.664-1.019-6.291-.904-12.855.302-19.284.097-10.38-.331-20.74.727-31.166-.555-7.937-.976-16.022-1.011-24.135-.343-7.363.607-14.857-.378-22.293-.652-11.539-.425-23.079-.634-34.483-2.916-9.572-1.916-18.446-5.322-24.411-13.252-8.624-11.464-7.852-25.78.847-37.695 5.132-7.03 11.846-12.073 19.436-16.727m98.062 59.755l38.808-.305c21.766.247 43.51 1.686 65.172-1.568 13.512-2.029 26.903-4.52 39.026-11.342 3.97-2.234 8.159-4.968 9.969-8.826 4.274-9.108 6.004-18.585 3.141-28.979-5.313-19.291-26.243-30.392-46.791-17.67-2.99 1.851-5.804 3.496-9.168 1.227-3.653-2.464-3.926-6.548-2.823-9.884 5.302-16.038-7.713-33.542-21.853-37.886-9.655-2.966-18.333-2.353-28.095.479-13.67 3.966-21.706 12.015-25.804 25.026-.994 3.156-1.801 6.596-5.779 7.44-4.173.885-6.495-1.87-8.641-4.692-3.554-4.673-8.589-7.362-14.019-7.841-14.98-1.323-27.775 3.888-37.925 15.047-7.581 8.335-7.858 17.284-1.146 26.012 1.732 2.252 2.574 4.616 1.237 7.412-1.294 2.705-3.567 3.856-6.361 4.159-3.04.329-5.43-.985-7.604-3.03-3.563-3.352-7.524-6.372-12.525-6.756-9.13-.7-17.793.548-25.492 6.405-3.002 2.283-4.973 5.316-7.667 7.715-4.993 4.445-8.362 9.319-6.928 16.494 1.734 8.675 7.107 13.361 15.383 15.76 18.347 5.32 37.269 4.424 55.885 4.221 13.116-.143 26.07 1.85 40 1.382zm-495.795 116.01c-5.441 3.553-8.565 3.424-11.129-.212-2.268-3.216-1.311-6.817 2.968-10.283 4.503-3.648 9.126-7.146 14.674-11.471-5.427-1.193-9.932-2.454-14.523-3.146-23.813-3.588-42.64-15.043-56.044-35.156-1.339-2.009-2.633-2.7-5.314-2.303-11.89 1.759-24.065 3.504-34.871-3.581-6.967-4.568-14.425-9.061-16.847-18.148-1.157-4.343.831-6.985 4.372-8.249 3.699-1.32 6.932-.139 8.303 4.067 3.267 10.019 18.76 18.165 32.339 12.819 2.705-1.065 3.357-2.998 2.595-5.61-5.128-17.594-4.185-34.816 3.51-51.489 4.537-9.829 11.259-18.165 20.287-24.062 10.188-6.655 21.237-10.824 33.931-8.043 8.813 1.931 17.893 11.539 19.602 20.513 3.299 17.319-4.17 30.985-14.114 43.929-2.632 3.427-5.335 6.809-8.169 10.069-7.334 8.437-16.508 14.418-26.628 18.848-6.857 3.002-7.752 5.499-2.947 11.308 8.188 9.898 18.761 16.327 30.822 20.116 7.223 2.269 14.788 3.463 22.222 5.032 1.765.373 3.651.476 5.486-1.062-1.509-2.945-3.874-5.214-6.131-7.566-1.611-1.679-3.27-3.316-4.816-5.052-2.382-2.675-3.211-5.457-.249-8.327 2.695-2.612 7.453-2.974 9.879-.113 7.119 8.394 15.304 15.676 23.202 23.276 4.545 4.373 3.479 10.119-1.86 12.714-11.168 5.429-20.965 12.828-30.552 21.182m-63.902-94.54c.982 3.508 1.784 7.078 2.99 10.507 1.551 4.41 3.531 5.08 7.585 2.911 2.051-1.097 3.998-2.396 6.074-3.439 19.967-10.026 32.959-25.971 39.23-47.224 2.876-9.745-6.326-24.274-18.152-21.165-14.144 3.719-25.076 11.766-31.775 25.158-5.127 10.25-7.154 20.978-5.952 33.251zm258.403-96.267c16.418 3.608 28.969 12.237 36.362 26.846 8.711 17.215 8.515 34.254-2.733 50.913-11.431 16.931-27.126 24.61-47.201 25.038-19.816.423-36.477-5.806-48.869-21.683-6.015-7.707-9.259-16.561-8.138-26.419.723-6.361-.244-12.832 2.636-19.099 8.722-18.975 22.051-32.257 43.159-36.129 8.059-1.478 16.251-.604 24.785.533M322.23 148.8c-1.09 2.96-2.623 5.837-3.193 8.894-2.248 12.061.89 26.542 11.361 35.096 9.808 8.012 21.175 10.41 33.116 10.055 10.799-.321 21.601-1.761 29.312-11.117 6.284-7.625 13.207-15.312 13.686-25.452 1.07-22.622-15.704-40.863-39.99-41.975-6.289-.288-12.09 1.238-18.121 1.939-3.661.426-6.814 1.598-9.537 3.851-6.302 5.214-12.092 10.927-16.635 18.71zm-19.183 64.714c4.059-1.5 7.242-1.03 9.383 2.613 2.283 3.885.055 6.545-2.545 9.12l-15.833 15.822c-3.055 3.107-7.374 3.817-10.221 1.5-2.89-2.351-3.123-6.066.178-9.663 6.038-6.58 12.438-12.828 19.039-19.393zm-4.925-111.681l6.681 5.767c3.122 2.419 3.34 5.407 1.387 8.345-2.063 3.105-5.781 4.576-8.638 2.223-7.273-5.99-14.951-11.69-20.478-19.504-2.011-2.844-1.981-6.153.83-8.598 2.82-2.453 5.843-1.61 8.695.329 4.464 3.036 6.765 8.215 11.523 11.438zm139.724 134.203c-4.327 2.241-7.602 1.266-10.601-1.902l-15.255-15.672c-2.968-3.103-4.127-6.477-.587-10.006 3.327-3.317 6.568-1.72 9.233.731 5.956 5.478 11.782 11.113 17.388 16.947 2.782 2.896 3.588 6.385-.178 9.902zm-4.334-152.872c5.237 2.645 6.376 6.652 2.649 10.459-5.575 5.694-11.514 11.054-17.545 16.271-3.078 2.664-6.785 2.907-9.944-.097-2.473-2.351-1.529-6.326 1.804-9.618l12.629-12.772c2.755-2.777 5.668-5.228 10.406-4.243z" />
    <path
        d="M361.212 96.348c-5.141 1.342-7.696-1.001-8.686-5.347-1.773-7.782-2.104-15.764-2.479-23.68-.241-5.096 3.238-7.9 7.717-7.666 3.904.203 5.649 2.854 5.083 5.966-1.271 6.991.853 13.449 2.065 20.073.755 4.129.829 7.983-3.701 10.655zm98.704 67.924c-5.796.012-11.11.195-16.409-.018-3.797-.153-7.476-1.128-7.769-5.922-.25-4.091 2.357-6.424 7.488-6.551 7.622-.189 15.252-.05 22.877-.163 3.797-.056 5.988 1.464 6.208 5.411s-1.653 6.397-5.453 7.078c-2.094.375-4.299.132-6.943.165zm-100.002 98.305c-1.705-8.716-2.287-17.142-2.126-25.592.068-3.573 1.748-6.574 5.827-6.894 3.925-.308 6.46 2.487 6.696 7.03.352 6.782.884 13.566.87 20.349-.006 3.069-.698 6.436-4.225 7.832-2.877 1.139-5.193.2-7.044-2.724zm-73.482-99.821c2.03 9.034.947 10.126-7.819 10.124-6.59-.001-13.197.422-19.762 1.03-3.907.362-6.232-1.241-6.958-4.736-.736-3.542.967-6.772 4.518-7.179 9.053-1.037 18.165-2.026 27.311-1.141.861.083 1.641 1 2.711 1.901zm96.517 734.612c1.161-3.462 3.798-4.602 6.552-5.37l59.068-16.331 55.717-15.266c19.237-5.778 38.816-10.247 58.048-16.077 18.736-5.68 37.93-9.85 56.933-14.643 12.724-3.21 25.088-7.636 37.915-10.576 17.963-4.118 35.685-9.275 53.589-13.668l68.295-16.258c2.324-.556 4.629-.597 6.945-.448 3.335.215 5.187 2.133 5.251 5.474.062 3.215-1.491 5.34-4.723 6.128l-72.162 17.507c-22.523 5.114-44.962 10.735-67.101 17.076-20.098 5.757-40.647 9.643-60.577 16.064-17.046 5.492-34.623 9.327-51.931 14.021l-42.718 11.872c-15.691 4.275-31.559 7.96-47.096 12.73-15.58 4.784-31.677 7.67-47.024 13.222-2.68.969-5.397 1.958-8.249 1.718-4.038-.34-7.124-1.948-6.732-7.177zm34.65-82.762c21.339-5.96 42.275-11.812 63.557-16.407 11.36-2.453 22.519-5.827 33.792-8.695 19.47-4.955 39.147-9.206 58.379-14.949 16.068-4.799 32.417-8.446 48.489-13.208 23.234-6.884 46.631-13.339 70.216-18.881 17.419-4.093 34.693-9.001 52.464-11.56 6.353-.915 10.01.58 10.588 4.502.612 4.149-3.411 8.244-9.13 8.462-14.795.566-28.566 5.942-42.827 8.947-24.028 5.063-47.501 12.456-71.296 18.544-18.299 4.681-36.495 9.913-54.672 15.135-23.731 6.817-47.834 12.39-71.903 18.025-11.421 2.674-22.837 5.747-34.204 8.836l-73.758 19.17c-10.602 2.789-21.089 6.016-31.65 8.967-1.741.487-3.586.698-5.398.818-3.592.239-6.387-1.121-6.949-4.912-.518-3.491 1.715-5.729 4.764-6.703 7.118-2.273 14.372-4.122 21.493-6.387 12.367-3.934 25.116-6.339 38.045-9.703zM164.497 434.864l-4.864.544c-3.74.624-6.359-.778-7.134-4.471-.84-4.006 1.695-6.431 5.103-7.427 6.205-1.813 12.568-3.076 18.831-4.702 22.345-5.799 45.153-9.421 67.665-14.437 12.3-2.741 24.747-4.816 37.088-7.382l61.858-13.094 69.23-14.298c11.035-2.331 21.877-5.875 33.008-7.368 12.006-1.611 23.846-4.184 35.878-5.517 3.465-.384 6.476.355 7.063 4.471.567 3.981-1.34 6.367-5.257 7.108-11.568 2.189-23.063 5.118-34.735 6.319-13.037 1.342-25.18 6.144-37.931 8.233-24.283 3.977-48.106 10.143-72.287 14.608-17.122 3.161-33.916 8.206-51.09 10.955-18.7 2.993-37.091 7.35-55.558 11.276-15.56 3.308-31.428 5.199-46.713 10.04-6.418 2.033-13.188 3.255-20.156 5.14zm387.897 291.711c9.796-2.408 18.26-7.077 26.869-11.389 3.342-1.674 6.601-2.961 9.258.886 2.133 3.089.839 8.429-3.133 10.255-10.491 4.824-20.404 11.159-32.356 12.379-3.794.387-7.347.315-10.702-1.249-4.605-2.146-8.482-1.079-11.852 2.235-4.91 4.828-10.633 8.423-16.463 12.009-7.755 4.771-15.129 4.228-22.422-.503-9.512-6.17-12.979-6.01-21.84 1.001-7.261 5.746-14.021 12.229-23.621 14.365-5.092 1.133-9.506 1.008-13.514-2.527a6.93 6.93 0 0 0-.389-.314c-8.954-6.802-8.607-6.194-18.235-.689-8.446 4.829-14.649 12.41-23.402 16.844-11.036 5.592-19.509 3.153-24.085-8.163-2.636-6.519-5.557-7.554-11.431-3.863-5.024 3.157-8.613 7.786-12.212 12.375-1.54 1.964-2.972 4.014-4.531 5.963-3.819 4.771-8.392 5.559-11.909 2.108-3.06-3.003-2.328-7.39 1.839-11.26 5.358-4.976 9.569-11.006 15.033-15.94 4.371-3.947 9.365-6.406 14.755-8.042 7.684-2.332 14.145 1.084 17.688 8.714 4.797 10.329 5.234 10.344 14.308 3.508 7.7-5.801 14.973-12.296 23.674-16.601 7.273-3.599 14.644-3.809 21.57 1.294 7.041 5.187 10.426 5.057 17.606-.084 4.997-3.577 9.195-8.076 14.494-11.367 9.948-6.176 19.681-5.701 28.914.554 5.105 3.458 9.537 3.323 14.359.595 4.06-2.297 7.639-5.241 10.883-8.661 7.897-8.326 14.05-9.657 24.659-5.421 1.938.774 3.833.967 6.184.987zM401.952 432.74c16.191-4.089 32.339-6.202 48.254-9.5 2.268-.47 4.613-.869 6.912-.815 2.772.065 5.865.019 6.213 4.121.329 3.875-1.073 6.709-4.891 7.565-7.127 1.598-14.356 2.732-21.498 4.267-11.343 2.439-22.87 3.831-34.175 6.582-10.788 2.625-21.993 3.599-32.703 6.463-17.637 4.715-35.517 8.277-53.287 12.349l-53.02 11.594c-8.746 1.96-17.403 4.31-26.111 6.443l-46.891 11.407c-3.764.901-7.023.269-8.363-4.066-1.071-3.465 1.032-6.909 5.209-8.307 4.599-1.539 9.619-1.283 14.161-2.654 31.805-9.602 64.514-15.43 96.705-23.406 16.074-3.983 32.698-5.863 48.615-10.328 17.956-5.037 36.3-7.787 54.87-11.715zm3.53 60.68l30.106-6.474c3.2-.605 7.358-1.638 8.621 3.307 1.189 4.66-.893 7.765-6.284 8.935-9.085 1.971-18.259 3.53-27.354 5.458-19.604 4.156-39.339 7.832-58.719 12.864-14.446 3.751-29.251 5.833-43.54 10.295-7.076 2.21-14.664 2.727-21.947 4.339-10.537 2.332-20.875 5.58-31.339 8.061l-30.01 7.063c-2.578.614-5.088 1.567-7.69 2.02-3.556.619-6.468-.759-7.388-4.327-.904-3.507.842-6.715 4.157-7.593 12.009-3.181 23.776-7.259 36.225-8.871 7.513-.973 14.923-3.129 22.223-5.285 15.621-4.613 31.675-7.197 47.536-10.687L364.2 502.23c13.558-3.22 27.062-6.684 41.282-8.81zm23.325 127.993c4.161.369 6.762 2.253 7.237 6.082.428 3.447-2.145 5.314-4.922 6.033-9.252 2.395-17.485 7.223-26.295 10.662-8.978 3.505-17.753 3.995-26.622.259-3.933-1.657-7.491-1.264-10.859 1.101-4.35 3.055-8.718 6.103-12.88 9.405-10.987 8.716-18.911 8.388-28.538-1.497-1.907-1.958-3.761-2.218-6.254-1.097-7.998 3.596-14.608 9.193-21.48 14.438-5.933 4.529-11.8 8.971-19.889 9.274-6.373.239-11.733-2.309-12.982-7.318-1.342-5.384 2.525-10.023 7.215-7.609 9.403 4.839 14.593-1.71 20.531-6.168 7.719-5.795 14.985-12.221 24.716-14.534 7.52-1.788 14.264-.862 19.095 5.889 1.791 2.502 3.747 2.169 6.084 1.121 4.962-2.225 8.771-6.053 12.813-9.461 9.063-7.643 18.893-9.298 29.701-4.631 8.789 3.795 15.79-.864 22.98-4.56 6.378-3.279 13.064-5.645 20.348-7.388zm-174.065-27.76c27.74-7.766 55.405-14.062 83.085-20.321 10.36-2.342 20.454-5.932 30.863-7.967 16.611-3.248 33.079-6.971 49.347-11.623 3.617-1.034 7.535-1.984 9.126 2.904 1.691 5.199-.567 8.096-6.452 9.614-11.564 2.982-23.162 6.511-34.805 8.332-17.961 2.809-35.181 8.329-52.782 12.29-20.686 4.655-41.433 9.402-61.867 15.262-7.801 2.237-15.78 3.849-23.667 5.791-4.025.991-7.033-.107-8.185-4.266-1.124-4.058 1.248-6.141 4.775-7.426 3.3-1.203 6.674-2.049 10.562-2.589zm500.255-222.88c-3.319-4.497-3.099-7.516 1.678-12.456 11.435-11.825 21.424-24.906 32.343-37.182 9.682-10.885 18.77-22.423 27.987-33.78 2.785-3.431 5.602-4.559 9.363-1.967 3.615 2.491 4.023 5.179.69 9.348-6.527 8.164-13.53 15.95-20.038 24.129-12.842 16.138-27.121 31.075-39.495 47.603-2.985 3.987-7.027 6.055-12.529 4.306z" />
</svg>