<?xml version="1.0" encoding="utf-8"?>
<!-- Generator: Adobe Illustrator 27.5.0, SVG Export Plug-In . SVG Version: 6.00 Build 0)  -->
<svg version="1.1" xmlns="http://www.w3.org/2000/svg" xmlns:xlink="http://www.w3.org/1999/xlink" x="0px" y="0px"
	 viewBox="0 0 500 500" style="enable-background:new 0 0 500 500;" xml:space="preserve">
<g id="BACKGROUND">
	<rect style="fill:#C4C8FF;" width="500" height="500"/>
</g>
<g id="OBJECTS">
	<path style="fill:#D8DBFF;" d="M391.89,351.51c-25.74,32.79-63.43,55.98-104.31,64.15c-29.28,5.86-55.15,15.26-83.75,14.78
		c-4.49-0.07-9.04-0.4-13.69-1.01c-32.88-4.35-64.06-20.06-87.47-43.52c-5.52-5.53-10.61-11.49-15.19-17.84
		c-23.98-33.24-25.71-76.66-26.16-117.65c-0.48-42.49,16.6-84.9,46.38-115.21c29.77-30.3,71.88-48.12,114.37-48.4
		c47.43-0.31,98.79,2.3,138.09,28.87c39.29,26.57,66.97,71.04,69.5,118.4C431.89,275.7,417.62,318.72,391.89,351.51z"/>
	<g>
		<path style="fill:#2A2A59;" d="M430.073,320.315H310.96c-4.695,0-8.255-4.232-7.452-8.858l35.704-205.583
			c0.908-5.23,5.448-9.049,10.756-9.049h119.113c4.695,0,8.255,4.232,7.452,8.858L440.83,311.266
			C439.921,316.496,435.382,320.315,430.073,320.315z"/>
		<path style="fill:#060305;" d="M414.373,103.434L414.373,103.434c-1.122,6.462-6.73,11.179-13.288,11.179h-1.444
			c-5.925,0-10.419-5.342-9.405-11.179l0,0h-46.425l-34.077,196.213h120.532l34.076-196.213H414.373z"/>
		<circle style="fill:#814EFF;" cx="401.815" cy="104.618" r="3.963"/>
		
			<line style="fill:none;stroke:#060305;stroke-linecap:round;stroke-linejoin:round;stroke-miterlimit:10;" x1="470.142" y1="96.825" x2="431.134" y2="320.315"/>
		<path style="fill:none;stroke:#060305;stroke-linecap:round;stroke-linejoin:round;stroke-miterlimit:10;" d="M360.254,310.517
			c6.739,0.056,13.478,0.112,20.217,0.169"/>
	</g>
	<g>
		<polygon style="fill:#F6921E;" points="353.384,74.014 203.406,74.014 203.406,107.369 322.562,107.369 328.598,117.824 
			334.634,107.369 353.384,107.369 		"/>
		<polygon style="fill:#FFFFFF;" points="149.934,128.537 299.912,128.537 299.912,161.893 180.756,161.893 174.719,172.347 
			168.684,161.893 149.934,161.893 		"/>
	</g>
	<g>
		<polygon style="fill:#814EFF;" points="283.032,377.725 292.958,383.456 292.958,371.994 		"/>
		<polygon style="fill:#814EFF;" points="432.59,344.118 426.859,354.045 438.321,354.045 		"/>
		<polygon style="fill:#814EFF;" points="62.434,155.773 68.165,145.847 56.703,145.847 		"/>
		<circle style="fill:#814EFF;" cx="239.315" cy="333.864" r="1.591"/>
		<circle style="fill:#814EFF;" cx="259.516" cy="326.863" r="1.591"/>
		<circle style="fill:#814EFF;" cx="233.935" cy="388.745" r="1.591"/>
		<path style="fill:#814EFF;" d="M363.05,333.864c0-0.879-0.712-1.591-1.591-1.591c-0.879,0-1.591,0.712-1.591,1.591
			c0,0.879,0.712,1.591,1.591,1.591C362.338,335.455,363.05,334.742,363.05,333.864z"/>
		<circle style="fill:#814EFF;" cx="297.689" cy="251.712" r="1.591"/>
		<circle style="fill:#814EFF;" cx="415.824" cy="369.178" r="1.591"/>
		<circle style="fill:#814EFF;" cx="450.842" cy="328.455" r="1.591"/>
		<circle style="fill:#814EFF;" cx="274.69" cy="204.406" r="1.591"/>
		<circle style="fill:#814EFF;" cx="387.837" cy="73.712" r="1.591"/>
		<circle style="fill:#814EFF;" cx="94.312" cy="188.59" r="1.591"/>
		<path style="fill:#814EFF;" d="M76.43,349.081c0-0.879-0.712-1.591-1.591-1.591c-0.879,0-1.591,0.712-1.591,1.591
			c0,0.879,0.712,1.591,1.591,1.591C75.717,350.673,76.43,349.96,76.43,349.081z"/>
		<path style="fill:#814EFF;" d="M64.025,375.279c0-0.879-0.712-1.591-1.591-1.591c-0.879,0-1.591,0.713-1.591,1.591
			c0,0.879,0.712,1.591,1.591,1.591C63.313,376.871,64.025,376.158,64.025,375.279z"/>
		<circle style="fill:#814EFF;" cx="53.187" cy="200.162" r="1.591"/>
		<path style="fill:#814EFF;" d="M367.682,58.183c0-0.879-0.712-1.591-1.591-1.591c-0.879,0-1.591,0.712-1.591,1.591
			c0,0.879,0.712,1.591,1.591,1.591C366.97,59.775,367.682,59.062,367.682,58.183z"/>
		<circle style="fill:#814EFF;" cx="278.395" cy="117.824" r="1.591"/>
	</g>
	<g>
		<path style="fill:none;stroke:#060305;stroke-linecap:round;stroke-linejoin:round;stroke-miterlimit:10;" d="M175.308,108.581
			L175.308,108.581c-0.988,3.07-5.332,3.07-6.32,0v0c-0.988-3.07-5.331-3.07-6.32,0v0c-0.988,3.07-5.331,3.07-6.32,0v0
			c-0.988-3.07-5.331-3.07-6.319,0l0,0c-0.988,3.07-5.331,3.07-6.319,0v0c-0.988-3.07-5.331-3.07-6.319,0v0
			c-0.988,3.07-5.332,3.07-6.32,0v0c-0.988-3.07-5.332-3.07-6.32,0v0c-0.988,3.07-5.331,3.07-6.319,0v0
			c-0.988-3.07-5.332-3.07-6.32,0"/>
		<path style="fill:none;stroke:#060305;stroke-linecap:round;stroke-linejoin:round;stroke-miterlimit:10;" d="M391.314,373.688
			L391.314,373.688c-0.988,3.07-5.332,3.07-6.32,0l0,0c-0.988-3.07-5.331-3.07-6.319,0l0,0c-0.988,3.07-5.331,3.07-6.319,0h0
			c-0.988-3.07-5.331-3.07-6.319,0l0,0c-0.988,3.07-5.331,3.07-6.319,0l0,0c-0.988-3.07-5.332-3.07-6.319,0l0,0
			c-0.988,3.07-5.332,3.07-6.32,0l0,0c-0.988-3.07-5.331-3.07-6.319,0l0,0c-0.988,3.07-5.332,3.07-6.32,0l0,0
			c-0.988-3.07-5.331-3.07-6.319,0"/>
		<path style="fill:none;stroke:#060305;stroke-linecap:round;stroke-linejoin:round;stroke-miterlimit:10;" d="M261.797,180.882
			L261.797,180.882c-0.988,3.07-5.332,3.07-6.32,0l0,0c-0.988-3.07-5.331-3.07-6.32,0l0,0c-0.988,3.07-5.331,3.07-6.32,0l0,0
			c-0.988-3.07-5.331-3.07-6.319,0l0,0c-0.988,3.07-5.332,3.07-6.32,0l0,0c-0.988-3.07-5.331-3.07-6.32,0l0,0
			c-0.988,3.07-5.331,3.07-6.319,0l0,0c-0.988-3.07-5.331-3.07-6.32,0l0,0c-0.988,3.07-5.331,3.07-6.32,0l0,0
			c-0.988-3.07-5.331-3.07-6.319,0"/>
	</g>
	<g>
		<g>
			<path style="fill:#FF9A7D;" d="M251.134,249.823c-6.907-7.946-16.998-12.236-26.724-16.269l-13.172,37.989
				c3.055,1.303,6.11,2.607,9.165,3.91c-12.79,12.188-24.242,25.564-33.765,40.445c2.844,8.657,5.941,16.947,10.233,24.986
				c4.077,0.416,8.041,1.12,12.119,1.536c2.15-2.922,3.974-5.625,6.125-8.547c-1.637-1.465-4.993-0.186-5.733,1.882
				c-0.306-1.42-0.504-3.143-0.809-4.563c14.406-9.955,27.828-21.691,40.324-33.959c6.179-6.066,10.202-14.82,10.587-23.469
				C259.868,265.113,256.814,256.357,251.134,249.823z"/>
			<path style="fill:none;stroke:#060305;stroke-linecap:round;stroke-linejoin:round;stroke-miterlimit:10;" d="M220.163,275.484
				c1.126-1.037,2.253-2.073,3.379-3.11"/>
			<path style="fill:none;stroke:#060305;stroke-linecap:round;stroke-linejoin:round;stroke-miterlimit:10;" d="M207.796,326.854
				c0.298,1.663,0.595,3.326,0.892,4.989"/>
		</g>
		<g>
			<path style="fill:#814EFF;" d="M203.83,430.44c-4.49-0.07-9.04-0.4-13.69-1.01c-32.88-4.35-64.06-20.06-87.47-43.52
				c-0.15-25.94,3.83-51.91,11.8-76.58c25.73-10.36,54.66-12.97,81.23-5.07C204.5,345.62,207.09,388.25,203.83,430.44z"/>
			<path style="fill:none;stroke:#060305;stroke-linecap:round;stroke-linejoin:round;stroke-miterlimit:10;" d="M162.735,347.408
				c2.255,15.001,4.509,30.001,6.764,45.002c1.571,10.45,1.389,20.53-1.841,30.335"/>
			<path style="fill:none;stroke:#060305;stroke-linecap:round;stroke-linejoin:round;stroke-miterlimit:10;" d="M112.159,317.504
				c28.286-1.173,56.572-2.346,84.858-3.52"/>
			<path style="fill:none;stroke:#060305;stroke-linecap:round;stroke-linejoin:round;stroke-miterlimit:10;" d="M130.474,317.014
				c-2.809,10.105-10.147,18.858-19.606,23.388"/>
			<path style="fill:none;stroke:#060305;stroke-linecap:round;stroke-linejoin:round;stroke-miterlimit:10;" d="M185.616,314.677
				c5.419,8.533,10.839,17.065,16.258,25.598"/>
		</g>
		<g>
			<path style="fill:#FF9A7D;" d="M100.387,302.23c-6.522-4.698-12.896-9.611-19.418-14.309c3.332-2.866,6.664-5.732,9.997-8.597
				l-33.833-27.833c-4.934,4.843-10.497,9.622-14.694,15.116c-4.128,5.405-7.349,11.846-7.322,18.647
				c0.022,5.818,2.446,11.446,5.958,16.085c3.512,4.638,7.868,8.791,12.918,11.68c14.766,8.445,29.429,18.081,43.553,27.56
				c-1.311,1.272-2.623,2.544-3.934,3.816c-0.391,0.379-0.795,0.778-0.972,1.293c-0.177,0.515-0.091,1.077,0.389,1.335
				c1.628-0.48,3.638-0.97,5.266-1.451c-1.09,0.831-2.112,1.753-3.049,2.753c-0.357,0.381-0.716,0.801-0.808,1.315
				c-0.092,0.514,0.205,1.19,0.721,1.269c5.824-0.917,11.869-1.814,17.693-2.731c1.589-8.637,3.123-17.28,4.711-25.916
				C113.136,314.713,107.489,307.345,100.387,302.23z"/>
			<path style="fill:none;stroke:#060305;stroke-linecap:round;stroke-linejoin:round;stroke-miterlimit:10;" d="M75.555,284.43
				c2.025,1.2,4.051,2.4,6.076,3.6"/>
			<path style="fill:none;stroke:#060305;stroke-linecap:round;stroke-linejoin:round;stroke-miterlimit:10;" d="M97.204,340.502
				c1.857,1.21,3.715,2.42,5.572,3.63"/>
			<path style="fill:none;stroke:#060305;stroke-linecap:round;stroke-linejoin:round;stroke-miterlimit:10;" d="M97.409,346.061
				c1.081-0.791,2.163-1.581,3.244-2.372"/>
		</g>
		<g>
			<path style="fill:#FFFFFF;" d="M229.081,230.821c-15.283-5.801-30.73-11.35-46.941-13.451
				c-11.647-1.509-23.494-3.283-35.141-4.793c-0.947,2.65-3.674,4.556-6.488,4.534c-2.814-0.021-5.616-2.029-6.523-4.693
				c-13.282,5.257-26.563,10.514-39.845,15.771c-15.116,5.983-28.908,15.03-42.432,24.05c12.742,10.229,25.551,20.772,38.294,31.001
				c4.614-3.126,9.114-6.004,13.728-9.13c3.605,12.995,6.602,23.647,10.207,36.643l82.87-4.011
				c-0.069-13.355,0.04-24.189-0.029-37.543c5.008,1.871,10.471,3.987,15.479,5.857C217.911,260.327,223.429,245.55,229.081,230.821
				z"/>
			<path style="fill:none;stroke:#060305;stroke-linecap:round;stroke-linejoin:round;stroke-miterlimit:10;" d="M125.217,216.893
				c1.64,4.555,5.249,8.299,9.634,9.994c4.385,1.695,9.471,1.31,13.574-1.026c4.104-2.336,7.154-6.583,8.143-11.337"/>
			<path style="fill:none;stroke:#060305;stroke-linecap:round;stroke-linejoin:round;stroke-miterlimit:10;" d="M85.723,232.535
				c10.15,12.012,16.589,27.115,18.229,42.755"/>
			<path style="fill:none;stroke:#060305;stroke-linecap:round;stroke-linejoin:round;stroke-miterlimit:10;" d="M197.174,269.787
				c-0.674-16.474-1.348-32.948-2.022-49.423"/>
			<path style="fill:none;stroke:#060305;stroke-linecap:round;stroke-linejoin:round;stroke-miterlimit:10;" d="M57.932,248.386
				c11.56,10.903,23.119,21.807,34.679,32.71"/>
			<path style="fill:none;stroke:#060305;stroke-linecap:round;stroke-linejoin:round;stroke-miterlimit:10;" d="M223.423,229.444
				c-4.221,14.886-8.822,29.665-13.796,44.317"/>
		</g>
		<g>
			<path style="fill:#FF9A7D;" d="M153.076,214.993c-1.082-0.121-2.265-0.357-3.347-0.478c0.027-2.163-0.303-4.183-0.276-6.346
				c-5.491-0.065-10.54-0.197-16.032-0.262c-0.209,2.163-0.418,4.327-0.626,6.49c-1.29,0.541-3.033,1.291-4.322,1.832
				c2.162,5.269,7.193,9.016,12.876,8.642C147.031,224.498,151.621,220.5,153.076,214.993z"/>
			<g>
				<path style="fill:none;stroke:#060305;stroke-linecap:round;stroke-linejoin:round;stroke-miterlimit:10;" d="M134.299,184.033
					c0.537-1.821,1.698-3.453,3.242-4.558c1.544-1.105,3.463-1.678,5.36-1.599"/>
				<path style="fill:none;stroke:#060305;stroke-linecap:round;stroke-linejoin:round;stroke-miterlimit:10;" d="M127.924,192.19
					c-0.655-0.032-1.31-0.063-1.966-0.094"/>
				<path style="fill:#060305;" d="M151.994,211.881c3.47-2.028,5.501-6.269,4.908-10.244c-0.187-1.256-0.77-2.502-2.016-2.75
					c-0.765-1.866-1.823-3.694-2.588-5.559c0.704-0.201,1.255-0.858,1.329-1.587c0.074-0.729-0.329-1.475-0.978-1.813
					c0.767-0.314,1.215-1.252,0.977-2.046c-0.239-0.794-1.088-1.05-1.901-0.889c-0.848-3.597-3.919-6.569-7.542-7.297
					c-3.623-0.728-7.671,1.029-9.843,4.019c-0.96-0.485-2.199-0.354-3.036,0.321c-0.837,0.676-1.093,2.003-0.821,3.044
					c-1.22-0.12-2.479,0.582-3.018,1.683c-0.539,1.101-0.348,2.603,0.495,3.494c-1.707,1.151-2.67,3.314-2.384,5.353
					c0.286,2.039,1.808,3.853,3.766,4.489c1.15,4.443,4.428,8.261,8.615,10.141C142.141,214.118,148.032,214.197,151.994,211.881z"
					/>
			</g>
			<g>
				<path style="fill:#FF9A7D;" d="M134.358,198.218c-1.408-0.173-2.887,0.081-4.087,0.838c-1.199,0.756-2.088,2.038-2.24,3.448
					c-0.201,1.857,0.949,3.742,2.636,4.545c1.686,0.802,3.788,0.55,5.326-0.509L134.358,198.218z"/>
				<path style="fill:none;stroke:#060305;stroke-linecap:round;stroke-linejoin:round;stroke-miterlimit:10;" d="M130.552,201.503
					c0.999,0.185,1.998,0.37,2.996,0.555"/>
			</g>
			<g>
				<path style="fill:#FF9A7D;" d="M155.427,200.163c-0.243-3.058-1.237-6.397-3.351-8.62c-1.508-1.586-3.67-2.228-5.859-2.237
					c-0.365,0.934-1.142,1.699-2.082,2.049c-0.94,0.35-1.833,0.156-2.72-0.311c-0.39,2.871-2.634,5.402-5.439,6.131
					c0.719,2.201,1.295,4.399,2.015,6.6C142.659,199.921,149.76,198.037,155.427,200.163z"/>
				<g>
					<circle style="fill:#060305;" cx="142.777" cy="197.678" r="1"/>
					<circle style="fill:#060305;" cx="151.844" cy="195.954" r="1"/>
					<path style="fill:#FFFFFF;" d="M148.351,201.478l-2.608-0.123c-0.175,0.755,0.456,1.59,1.23,1.626
						C147.747,203.018,148.455,202.247,148.351,201.478z"/>
					<path style="fill:none;stroke:#060305;stroke-linecap:round;stroke-linejoin:round;stroke-miterlimit:10;" d="M140.907,194.489
						c0.633-0.728,1.752-0.984,2.639-0.604"/>
					<path style="fill:none;stroke:#060305;stroke-linecap:round;stroke-linejoin:round;stroke-miterlimit:10;" d="M149.184,191.091
						c0.404-0.102,0.807-0.204,1.21-0.307"/>
					<path style="fill:none;stroke:#060305;stroke-linecap:round;stroke-linejoin:round;stroke-miterlimit:10;" d="M147.85,195.502
						c0.54,1.026,1.079,2.053,1.619,3.079c-0.531,0.187-1.168,0.525-1.698,0.712"/>
				</g>
				<path style="fill:none;stroke:#060305;stroke-linecap:round;stroke-linejoin:round;stroke-miterlimit:10;" d="M146.209,188.648
					c0.423,0.853,0.365,1.926-0.147,2.729"/>
			</g>
		</g>
	</g>
	<g>
		<g>
			<g>
				<path style="fill:#9E97FF;" d="M348.459,228.146c-2.14,0-4.248-0.738-5.929-2.103c-5.346-4.338-14.605-8.624-28.346-4.401
					c-1.12,0.345-2.307-0.285-2.651-1.406c-0.344-1.12,0.286-2.307,1.406-2.651c15.527-4.767,26.117,0.176,32.265,5.163
					c1.12,0.909,2.516,1.302,3.939,1.108c1.406-0.194,2.632-0.94,3.453-2.101l8.313-11.764c0.677-0.956,2-1.186,2.958-0.508
					c0.957,0.676,1.184,2.001,0.508,2.957l-8.314,11.764c-1.505,2.131-3.757,3.5-6.338,3.855
					C349.302,228.117,348.88,228.146,348.459,228.146z"/>
				<path style="fill:none;stroke:#060305;stroke-linecap:round;stroke-linejoin:round;stroke-miterlimit:10;" d="M340.409,219.694
					c-0.562,1.311-1.123,2.621-1.685,3.931"/>
				<path style="fill:none;stroke:#060305;stroke-linecap:round;stroke-linejoin:round;stroke-miterlimit:10;" d="M343.196,221.746
					c-0.501,1.372-1.002,2.745-1.503,4.117"/>
				<path style="fill:none;stroke:#060305;stroke-linecap:round;stroke-linejoin:round;stroke-miterlimit:10;" d="M346.533,223.246
					c-0.126,1.31-0.251,2.621-0.377,3.931"/>
				<path style="fill:none;stroke:#060305;stroke-linecap:round;stroke-linejoin:round;stroke-miterlimit:10;" d="M349.509,224.2
					c0.206,1.182,0.412,2.365,0.618,3.547"/>
				<path style="fill:none;stroke:#060305;stroke-linecap:round;stroke-linejoin:round;stroke-miterlimit:10;" d="M352.21,222.498
					c0.75,1.185,1.5,2.37,2.251,3.555"/>
				<path style="fill:none;stroke:#060305;stroke-linecap:round;stroke-linejoin:round;stroke-miterlimit:10;" d="M354.204,220.14
					c1.017,0.852,2.033,1.704,3.05,2.555"/>
			</g>
			<g>
				<path style="fill:#814EFF;" d="M301.749,215.356c-3.622,1.703-5.555,5.54-5.009,9.306l7.686-3.614l2.203,4.686l-7.686,3.614
					c2.552,2.823,6.74,3.782,10.362,2.079c4.438-2.086,6.344-7.375,4.257-11.813C311.475,215.176,306.186,213.27,301.749,215.356z"
					/>
				<path style="fill:none;stroke:#060305;stroke-linecap:round;stroke-linejoin:round;stroke-miterlimit:10;" d="M305.589,230.576
					c1.991-0.073,3.936-1.009,5.234-2.52c1.298-1.511,1.931-3.575,1.703-5.555"/>
			</g>
		</g>
		<g>
			<path style="fill:#814EFF;" d="M397.021,246.711L397.021,246.711c-11.755,2.639-23.548-3.154-27.742-13.628l-10.591-26.447
				l55.857-12.54l1.73,28.436C416.961,233.793,408.776,244.072,397.021,246.711z"/>
			<path style="fill:none;stroke:#FFFFFF;stroke-linecap:round;stroke-linejoin:round;stroke-miterlimit:10;" d="M401.429,242.128
				c7.005-2.402,12.259-9.24,12.776-16.627"/>
			<g>
				<path style="fill:#FFFFFF;" d="M396.894,210.681c-0.295-1.315-1.6-2.141-2.915-1.846c-1.315,0.295-2.141,1.6-1.846,2.915
					c0.295,1.315,1.6,2.141,2.915,1.846C396.363,213.301,397.189,211.996,396.894,210.681z"/>
				<path style="fill:none;stroke:#060305;stroke-linecap:round;stroke-linejoin:round;stroke-miterlimit:10;" d="M390.384,210.896
					c-0.124-1.795,1.585-3.49,3.379-3.351"/>
			</g>
			<g>
				<path style="fill:#F6921E;" d="M405.479,208.754c-0.295-1.315-1.6-2.141-2.915-1.846c-1.315,0.295-2.141,1.6-1.846,2.915
					c0.295,1.315,1.6,2.141,2.915,1.846C404.948,211.373,405.774,210.068,405.479,208.754z"/>
				<path style="fill:none;stroke:#060305;stroke-linecap:round;stroke-linejoin:round;stroke-miterlimit:10;" d="M398.979,208.65
					c-0.084-1.984,2.008-3.747,3.949-3.327"/>
			</g>
		</g>
		<g>
			<g>
				<path style="fill:#9E97FF;" d="M430.325,243.127c-1.151,0-2.097-0.921-2.121-2.078c-0.535-26.096-15.17-34.437-15.793-34.779
					c-1.023-0.563-1.404-1.85-0.845-2.876c0.559-1.026,1.839-1.409,2.865-0.856c0.712,0.383,17.428,9.716,18.016,38.424
					c0.024,1.172-0.907,2.141-2.078,2.165C430.355,243.127,430.339,243.127,430.325,243.127z"/>
				<path style="fill:none;stroke:#060305;stroke-linecap:round;stroke-linejoin:round;stroke-miterlimit:10;" d="M422.586,216.869
					c1.37-0.691,2.741-1.382,4.111-2.074"/>
				<path style="fill:none;stroke:#060305;stroke-linecap:round;stroke-linejoin:round;stroke-miterlimit:10;" d="M423.327,218.336
					c1.244-0.448,2.488-0.896,3.732-1.344"/>
				<path style="fill:none;stroke:#060305;stroke-linecap:round;stroke-linejoin:round;stroke-miterlimit:10;" d="M424.434,219.992
					c1.253-0.549,2.507-1.099,3.76-1.649"/>
				<path style="fill:none;stroke:#060305;stroke-linecap:round;stroke-linejoin:round;stroke-miterlimit:10;" d="M424.643,222.28
					c1.498-0.498,2.996-0.996,4.494-1.493"/>
				<path style="fill:none;stroke:#060305;stroke-linecap:round;stroke-linejoin:round;stroke-miterlimit:10;" d="M425.587,224.178
					c1.435-0.439,2.869-0.878,4.304-1.317"/>
			</g>
			<g>
				<path style="fill:#814EFF;" d="M418.616,245.537c-1.618,3.661-0.561,7.825,2.32,10.311l3.433-7.768l4.736,2.093l-3.433,7.768
					c3.778,0.458,7.568-1.564,9.186-5.226c1.982-4.485-0.047-9.728-4.532-11.71C425.84,239.023,420.598,241.052,418.616,245.537z"/>
				<path style="fill:none;stroke:#060305;stroke-linecap:round;stroke-linejoin:round;stroke-miterlimit:10;" d="M428.214,255.843
					c3.272-0.573,5.759-4.01,5.279-7.297"/>
			</g>
		</g>
		<g>
			<path style="fill:none;stroke:#FFFFFF;stroke-linecap:round;stroke-linejoin:round;stroke-miterlimit:10;" d="M381.654,264.099
				c1.266-1.849,3.616-2.891,5.836-2.588c2.702,0.369,4.852,2.48,7.475,3.229c3.353,0.958,7.265-0.697,8.912-3.771"/>
			<path style="fill:none;stroke:#FFFFFF;stroke-linecap:round;stroke-linejoin:round;stroke-miterlimit:10;" d="M382.332,273.497
				c0.01-2.746,3.331-4.379,6.056-4.04s5.128,1.91,7.757,2.703c2.629,0.793,6.028,0.492,7.37-1.903"/>
		</g>
		<g>
			<g>
				
					<line style="fill:none;stroke:#FFFFFF;stroke-linecap:round;stroke-linejoin:round;stroke-miterlimit:10;" x1="326.196" y1="142.598" x2="320.564" y2="138.244"/>
				<circle style="fill:#814EFF;" cx="332.453" cy="148.086" r="8.331"/>
				<circle style="fill:#814EFF;" cx="318.738" cy="136.721" r="2.293"/>
			</g>
			<g>
				<path style="fill:#9E97FF;" d="M365.165,127.245c-26.15,0-47.349,26.971-47.349,60.241h94.699
					C412.514,154.216,391.315,127.245,365.165,127.245z"/>
				<path style="fill:none;stroke:#FFFFFF;stroke-linecap:round;stroke-linejoin:round;stroke-miterlimit:10;" d="M330.391,152.904
					c4.941-10.171,14.064-18.232,24.765-21.885"/>
			</g>
			<path style="fill:#FFFFFF;" d="M344.265,168.814h34.389C378.653,168.814,363.576,185.931,344.265,168.814z"/>
			<g>
				<path style="fill:#814EFF;" d="M364.474,152.048c0-2.906-2.356-5.263-5.263-5.263c-2.907,0-5.263,2.356-5.263,5.263
					c0,2.907,2.356,5.263,5.263,5.263C362.118,157.311,364.474,154.955,364.474,152.048z"/>
				<path style="fill:none;stroke:#060305;stroke-linecap:round;stroke-linejoin:round;stroke-miterlimit:10;" d="M351.621,150.795
					c0.935-3.5,4.264-6.218,7.879-6.434"/>
			</g>
			<g>
				<path style="fill:#814EFF;" d="M404.246,153.464c1.228-1.451,1.968-3.328,1.968-5.378c0-4.601-3.73-8.331-8.331-8.331
					c-1.131,0-2.209,0.225-3.192,0.633C394.691,140.389,393.854,150.183,404.246,153.464z"/>
				
					<line style="fill:none;stroke:#FFFFFF;stroke-linecap:round;stroke-linejoin:round;stroke-miterlimit:10;" x1="404.257" y1="142.727" x2="409.674" y2="138.244"/>
				<circle style="fill:#814EFF;" cx="411.354" cy="136.809" r="2.293"/>
			</g>
		</g>
	</g>
</g>
</svg>
